<svg width="40" height="40" viewBox="0 0 40 40" fill="none" xmlns="http://www.w3.org/2000/svg">
<path d="M10 17C10 15.1144 10 14.1716 10.5858 13.5858C10.5858 13.5858 10.5858 13.5858 10.5858 13.5858C11.1716 13 12.1144 13 14 13H26C27.8856 13 28.8284 13 29.4142 13.5858C29.4142 13.5858 29.4142 13.5858 29.4142 13.5858C30 14.1716 30 15.1144 30 17V17C30 17.4714 30 17.7071 29.8536 17.8536C29.8536 17.8536 29.8536 17.8536 29.8536 17.8536C29.7071 18 29.4714 18 29 18H11C10.5286 18 10.2929 18 10.1464 17.8536C10.1464 17.8536 10.1464 17.8536 10.1464 17.8536C10 17.7071 10 17.4714 10 17V17Z" fill="#495057"/>
<path fill-rule="evenodd" clip-rule="evenodd" d="M10 26C10 27.8856 10 28.8284 10.5858 29.4142C11.1716 30 12.1144 30 14 30H26C27.8856 30 28.8284 30 29.4142 29.4142C30 28.8284 30 27.8856 30 26V21C30 20.5286 30 20.2929 29.8536 20.1464C29.7071 20 29.4714 20 29 20H11C10.5286 20 10.2929 20 10.1464 20.1464C10 20.2929 10 20.5286 10 21V26ZM15 23C15 22.5286 15 22.2929 15.1464 22.1464C15.2929 22 15.5286 22 16 22H18C18.4714 22 18.7071 22 18.8536 22.1464C19 22.2929 19 22.5286 19 23C19 23.4714 19 23.7071 18.8536 23.8536C18.7071 24 18.4714 24 18 24H16C15.5286 24 15.2929 24 15.1464 23.8536C15 23.7071 15 23.4714 15 23ZM15.1464 26.1464C15 26.2929 15 26.5286 15 27C15 27.4714 15 27.7071 15.1464 27.8535C15.2929 28 15.5286 28 16 28H18C18.4714 28 18.7071 28 18.8536 27.8535C19 27.7071 19 27.4714 19 27C19 26.5286 19 26.2929 18.8536 26.1464C18.7071 26 18.4714 26 18 26H16C15.5286 26 15.2929 26 15.1464 26.1464ZM21 23C21 22.5286 21 22.2929 21.1464 22.1464C21.2929 22 21.5286 22 22 22H24C24.4714 22 24.7071 22 24.8536 22.1464C25 22.2929 25 22.5286 25 23C25 23.4714 25 23.7071 24.8536 23.8536C24.7071 24 24.4714 24 24 24H22C21.5286 24 21.2929 24 21.1464 23.8536C21 23.7071 21 23.4714 21 23ZM21.1464 26.1464C21 26.2929 21 26.5286 21 27C21 27.4714 21 27.7071 21.1464 27.8535C21.2929 28 21.5286 28 22 28H24C24.4714 28 24.7071 28 24.8536 27.8535C25 27.7071 25 27.4714 25 27C25 26.5286 25 26.2929 24.8536 26.1464C24.7071 26 24.4714 26 24 26H22C21.5286 26 21.2929 26 21.1464 26.1464Z" fill="#495057"/>
<path d="M15 11L15 14" stroke="#495057" stroke-width="2" stroke-linecap="round"/>
<path d="M25 11L25 14" stroke="#495057" stroke-width="2" stroke-linecap="round"/>
</svg>
