<svg width="35" height="35" viewBox="0 0 35 35" fill="none" xmlns="http://www.w3.org/2000/svg">
<path d="M2.91675 18.2291V16.7708C2.91675 16.3681 3.24321 16.0416 3.64591 16.0416H27.2272L20.7376 9.56661C20.5995 9.4297 20.5219 9.24333 20.5219 9.04891C20.5219 8.85448 20.5995 8.66811 20.7376 8.5312L21.773 7.51036C21.9099 7.37232 22.0963 7.29468 22.2907 7.29468C22.4851 7.29468 22.6715 7.37232 22.8084 7.51036L31.7626 16.4499C31.9678 16.6549 32.0832 16.9329 32.0834 17.2229V17.777C32.0801 18.0664 31.9651 18.3433 31.7626 18.5499L22.8084 27.4895C22.6715 27.6276 22.4851 27.7052 22.2907 27.7052C22.0963 27.7052 21.9099 27.6276 21.773 27.4895L20.7376 26.4541C20.6004 26.3197 20.5231 26.1357 20.5231 25.9437C20.5231 25.7516 20.6004 25.5677 20.7376 25.4333L27.2272 18.9583H3.64591C3.24321 18.9583 2.91675 18.6318 2.91675 18.2291Z" fill="#333333"/>
</svg>
