<svg width="803" height="500" viewBox="0 0 803 500" fill="none" xmlns="http://www.w3.org/2000/svg">
<g clip-path="url(#clip0_127_120)">
<path d="M0 0H803V500H0V0Z" fill="white"/>
<path d="M401.5 74.0117C476.369 74.0117 544.909 116.307 578.899 183.483C612.889 250.66 606.582 331.359 562.575 392.353L401.5 274.506V74.0117Z" fill="#92152E"/>
<path d="M284.472 112.303C318.488 87.4158 359.454 74.0117 401.5 74.0117V274.506L284.472 112.303Z" fill="#FF6D01"/>
<path d="M212.145 212.55C225.138 172.282 250.457 137.19 284.472 112.303L401.5 274.506L212.145 212.55Z" fill="#EA0729"/>
<path d="M284.472 436.709C214.69 385.654 185.491 295.158 212.145 212.55L401.5 274.506L284.472 436.709Z" fill="#FAC150"/>
<path d="M562.575 392.353C531.537 435.372 484.8 464.213 432.646 472.532C380.491 480.85 327.192 467.964 284.472 436.709L401.5 274.506L562.575 392.353Z" fill="#8A6986"/>
<path d="M30.8068 111.747H29.4057V102.693C29.0572 103.015 28.6041 103.345 28.0464 103.682C27.5027 104.005 27.0148 104.244 26.5826 104.398V103.029C27.3633 102.65 28.0464 102.201 28.632 101.682C29.2314 101.148 29.6566 100.629 29.9076 100.123H30.8068V111.747ZM34.8636 106.041C34.8636 104.665 35.003 103.563 35.2818 102.735C35.5606 101.892 35.9719 101.247 36.5156 100.797C37.0732 100.348 37.7703 100.123 38.6067 100.123C39.2201 100.123 39.7569 100.25 40.2169 100.503C40.6909 100.755 41.0813 101.12 41.388 101.598C41.6947 102.061 41.9317 102.629 42.0989 103.303C42.2662 103.977 42.3499 104.89 42.3499 106.041C42.3499 107.403 42.2105 108.498 41.9317 109.326C41.6668 110.154 41.2555 110.8 40.6979 111.263C40.1542 111.712 39.4571 111.937 38.6067 111.937C37.5054 111.937 36.6341 111.537 35.9928 110.737C35.24 109.782 34.8636 108.217 34.8636 106.041ZM36.3065 106.041C36.3065 107.936 36.5295 109.199 36.9756 109.831C37.4217 110.463 37.9654 110.779 38.6067 110.779C39.262 110.779 39.8057 110.463 40.2378 109.831C40.6839 109.199 40.907 107.936 40.907 106.041C40.907 104.132 40.6839 102.868 40.2378 102.25C39.8057 101.619 39.255 101.303 38.5858 101.303C37.9445 101.303 37.4287 101.576 37.0384 102.124C36.5504 102.826 36.3065 104.132 36.3065 106.041ZM44.9847 111.747V110.126H46.5949V111.747C46.5949 112.337 46.4903 112.814 46.2812 113.179C46.0721 113.558 45.7445 113.846 45.2984 114.043L44.9011 113.432C45.1938 113.306 45.4099 113.109 45.5493 112.842C45.6887 112.59 45.7724 112.225 45.8003 111.747H44.9847ZM48.2469 106.041C48.2469 104.665 48.3863 103.563 48.6651 102.735C48.944 101.892 49.3552 101.247 49.8989 100.797C50.4566 100.348 51.1536 100.123 51.9901 100.123C52.6035 100.123 53.1402 100.25 53.6002 100.503C54.0742 100.755 54.4646 101.12 54.7713 101.598C55.078 102.061 55.315 102.629 55.4823 103.303C55.6496 103.977 55.7332 104.89 55.7332 106.041C55.7332 107.403 55.5938 108.498 55.315 109.326C55.0501 110.154 54.6388 110.8 54.0812 111.263C53.5375 111.712 52.8405 111.937 51.9901 111.937C50.8887 111.937 50.0174 111.537 49.3761 110.737C48.6233 109.782 48.2469 108.217 48.2469 106.041ZM49.6898 106.041C49.6898 107.936 49.9129 109.199 50.359 109.831C50.8051 110.463 51.3488 110.779 51.9901 110.779C52.6453 110.779 53.189 110.463 53.6212 109.831C54.0673 109.199 54.2903 107.936 54.2903 106.041C54.2903 104.132 54.0673 102.868 53.6212 102.25C53.189 101.619 52.6383 101.303 51.9692 101.303C51.3279 101.303 50.812 101.576 50.4217 102.124C49.9338 102.826 49.6898 104.132 49.6898 106.041ZM57.8871 102.945C57.8871 102.117 58.0892 101.415 58.4935 100.839C58.9118 100.264 59.5112 99.9761 60.2919 99.9761C61.0168 99.9761 61.6163 100.236 62.0903 100.755C62.5643 101.275 62.8013 102.033 62.8013 103.029C62.8013 104.012 62.5573 104.77 62.0694 105.304C61.5954 105.823 61.0099 106.083 60.3128 106.083C59.6158 106.083 59.0372 105.823 58.5772 105.304C58.1171 104.784 57.8871 103.998 57.8871 102.945ZM60.3337 100.945C59.9852 100.945 59.6924 101.099 59.4555 101.408C59.2324 101.717 59.1209 102.278 59.1209 103.093C59.1209 103.837 59.2324 104.363 59.4555 104.672C59.6924 104.967 59.9852 105.114 60.3337 105.114C60.6962 105.114 60.989 104.96 61.212 104.651C61.449 104.342 61.5675 103.788 61.5675 102.987C61.5675 102.229 61.449 101.703 61.212 101.408C60.975 101.099 60.6823 100.945 60.3337 100.945ZM60.3337 112.169L66.6281 99.9761H67.7782L61.5048 112.169H60.3337ZM65.3107 109.031C65.3107 108.203 65.5128 107.501 65.9171 106.925C66.3353 106.35 66.9418 106.062 67.7364 106.062C68.4613 106.062 69.0608 106.322 69.5348 106.841C70.0088 107.346 70.2458 108.104 70.2458 109.115C70.2458 110.098 70.0018 110.856 69.5139 111.389C69.0399 111.909 68.4474 112.169 67.7364 112.169C67.0533 112.169 66.4747 111.909 66.0007 111.389C65.5407 110.87 65.3107 110.084 65.3107 109.031ZM67.7782 107.03C67.4157 107.03 67.116 107.185 66.879 107.494C66.656 107.803 66.5444 108.364 66.5444 109.178C66.5444 109.908 66.6629 110.428 66.8999 110.737C67.1369 111.046 67.4297 111.2 67.7782 111.2C68.1267 111.2 68.4195 111.046 68.6565 110.737C68.8935 110.428 69.012 109.866 69.012 109.052C69.012 108.308 68.8935 107.789 68.6565 107.494C68.4195 107.185 68.1267 107.03 67.7782 107.03Z" fill="#9E9E9E"/>
<path d="M24.826 94.9009H194.371L343.051 93.3584" stroke="#757575" stroke-width="0.788177" stroke-miterlimit="10"/>
<path d="M345.728 93.3585C345.728 91.8699 344.529 90.6631 343.051 90.6631C341.573 90.6631 340.375 91.8699 340.375 93.3585C340.375 94.8471 341.573 96.0539 343.051 96.0539C344.529 96.0539 345.728 94.8471 345.728 93.3585Z" fill="#9E9E9E"/>
<path d="M30.8068 179.397H29.4057V170.342C29.0572 170.665 28.6041 170.995 28.0464 171.332C27.5027 171.655 27.0148 171.893 26.5826 172.048V170.679C27.3633 170.3 28.0464 169.851 28.632 169.331C29.2314 168.798 29.6566 168.278 29.9076 167.773H30.8068V179.397ZM34.8636 173.69C34.8636 172.314 35.003 171.212 35.2818 170.384C35.5606 169.542 35.9719 168.896 36.5156 168.447C37.0732 167.998 37.7703 167.773 38.6067 167.773C39.2201 167.773 39.7569 167.899 40.2169 168.152C40.6909 168.405 41.0813 168.77 41.388 169.247C41.6947 169.71 41.9317 170.279 42.0989 170.953C42.2662 171.626 42.3499 172.539 42.3499 173.69C42.3499 175.052 42.2105 176.147 41.9317 176.975C41.6668 177.804 41.2555 178.449 40.6979 178.913C40.1542 179.362 39.4571 179.586 38.6067 179.586C37.5054 179.586 36.6341 179.186 35.9928 178.386C35.24 177.431 34.8636 175.866 34.8636 173.69ZM36.3065 173.69C36.3065 175.585 36.5295 176.849 36.9756 177.481C37.4217 178.112 37.9654 178.428 38.6067 178.428C39.262 178.428 39.8057 178.112 40.2378 177.481C40.6839 176.849 40.907 175.585 40.907 173.69C40.907 171.781 40.6839 170.517 40.2378 169.9C39.8057 169.268 39.255 168.952 38.5858 168.952C37.9445 168.952 37.4287 169.226 37.0384 169.773C36.5504 170.475 36.3065 171.781 36.3065 173.69ZM44.9847 179.397V177.775H46.5949V179.397C46.5949 179.987 46.4903 180.464 46.2812 180.829C46.0721 181.208 45.7445 181.496 45.2984 181.692L44.9011 181.082C45.1938 180.955 45.4099 180.759 45.5493 180.492C45.6887 180.239 45.7724 179.874 45.8003 179.397H44.9847ZM48.2469 173.69C48.2469 172.314 48.3863 171.212 48.6651 170.384C48.944 169.542 49.3552 168.896 49.8989 168.447C50.4566 167.998 51.1536 167.773 51.9901 167.773C52.6035 167.773 53.1402 167.899 53.6002 168.152C54.0742 168.405 54.4646 168.77 54.7713 169.247C55.078 169.71 55.315 170.279 55.4823 170.953C55.6496 171.626 55.7332 172.539 55.7332 173.69C55.7332 175.052 55.5938 176.147 55.315 176.975C55.0501 177.804 54.6388 178.449 54.0812 178.913C53.5375 179.362 52.8405 179.586 51.9901 179.586C50.8887 179.586 50.0174 179.186 49.3761 178.386C48.6233 177.431 48.2469 175.866 48.2469 173.69ZM49.6898 173.69C49.6898 175.585 49.9129 176.849 50.359 177.481C50.8051 178.112 51.3488 178.428 51.9901 178.428C52.6453 178.428 53.189 178.112 53.6212 177.481C54.0673 176.849 54.2903 175.585 54.2903 173.69C54.2903 171.781 54.0673 170.517 53.6212 169.9C53.189 169.268 52.6383 168.952 51.9692 168.952C51.3279 168.952 50.812 169.226 50.4217 169.773C49.9338 170.475 49.6898 171.781 49.6898 173.69ZM57.8871 170.595C57.8871 169.766 58.0892 169.064 58.4935 168.489C58.9118 167.913 59.5112 167.625 60.2919 167.625C61.0168 167.625 61.6163 167.885 62.0903 168.405C62.5643 168.924 62.8013 169.682 62.8013 170.679C62.8013 171.662 62.5573 172.42 62.0694 172.953C61.5954 173.473 61.0099 173.732 60.3128 173.732C59.6158 173.732 59.0372 173.473 58.5772 172.953C58.1171 172.434 57.8871 171.648 57.8871 170.595ZM60.3337 168.594C59.9852 168.594 59.6924 168.749 59.4555 169.057C59.2324 169.366 59.1209 169.928 59.1209 170.742C59.1209 171.486 59.2324 172.013 59.4555 172.321C59.6924 172.616 59.9852 172.764 60.3337 172.764C60.6962 172.764 60.989 172.609 61.212 172.3C61.449 171.992 61.5675 171.437 61.5675 170.637C61.5675 169.879 61.449 169.352 61.212 169.057C60.975 168.749 60.6823 168.594 60.3337 168.594ZM60.3337 179.818L66.6281 167.625H67.7782L61.5048 179.818H60.3337ZM65.3107 176.68C65.3107 175.852 65.5128 175.15 65.9171 174.575C66.3353 173.999 66.9418 173.711 67.7364 173.711C68.4613 173.711 69.0608 173.971 69.5348 174.49C70.0088 174.996 70.2458 175.754 70.2458 176.765C70.2458 177.747 70.0018 178.505 69.5139 179.039C69.0399 179.558 68.4474 179.818 67.7364 179.818C67.0533 179.818 66.4747 179.558 66.0007 179.039C65.5407 178.519 65.3107 177.733 65.3107 176.68ZM67.7782 174.68C67.4157 174.68 67.116 174.834 66.879 175.143C66.656 175.452 66.5444 176.014 66.5444 176.828C66.5444 177.558 66.6629 178.077 66.8999 178.386C67.1369 178.695 67.4297 178.849 67.7782 178.849C68.1267 178.849 68.4195 178.695 68.6565 178.386C68.8935 178.077 69.012 177.516 69.012 176.701C69.012 175.957 68.8935 175.438 68.6565 175.143C68.4195 174.834 68.1267 174.68 67.7782 174.68Z" fill="#9E9E9E"/>
<path d="M24.826 162.551H194.371H248.479" stroke="#757575" stroke-width="0.788177" stroke-miterlimit="10"/>
<path d="M251.156 162.551C251.156 161.062 249.957 159.855 248.479 159.855C247.001 159.855 245.802 161.062 245.802 162.551C245.802 164.04 247.001 165.246 248.479 165.246C249.957 165.246 251.156 164.04 251.156 162.551Z" fill="#9E9E9E"/>
<path d="M32.9188 348.842V350.21H25.307C25.307 349.873 25.3628 349.544 25.4743 349.221C25.6695 348.701 25.9762 348.189 26.3944 347.683C26.8266 347.178 27.4469 346.595 28.2555 345.936C29.5102 344.897 30.3536 344.075 30.7858 343.472C31.2319 342.868 31.455 342.3 31.455 341.766C31.455 341.205 31.2528 340.734 30.8485 340.355C30.4443 339.962 29.9215 339.766 29.2802 339.766C28.5971 339.766 28.0534 339.969 27.6491 340.376C27.2448 340.783 27.0357 341.352 27.0217 342.082L25.5789 341.935C25.6764 340.84 26.0459 340.011 26.6872 339.45C27.3424 338.874 28.2207 338.586 29.322 338.586C30.4233 338.586 31.2947 338.895 31.9359 339.513C32.5772 340.131 32.8979 340.896 32.8979 341.808C32.8979 342.272 32.8003 342.728 32.6051 343.177C32.4239 343.612 32.1102 344.082 31.6641 344.588C31.2319 345.079 30.514 345.753 29.5102 346.609C28.6598 347.325 28.1091 347.817 27.8582 348.084C27.6212 348.336 27.426 348.589 27.2727 348.842H32.9188ZM34.8635 344.504C34.8635 343.128 35.003 342.026 35.2818 341.198C35.5606 340.355 35.9719 339.709 36.5155 339.26C37.0732 338.811 37.7702 338.586 38.6067 338.586C39.2201 338.586 39.7568 338.713 40.2169 338.965C40.6909 339.218 41.0812 339.583 41.3879 340.06C41.6946 340.524 41.9316 341.092 42.0989 341.766C42.2662 342.44 42.3498 343.352 42.3498 344.504C42.3498 345.865 42.2104 346.96 41.9316 347.789C41.6667 348.617 41.2555 349.263 40.6978 349.726C40.1541 350.175 39.4571 350.4 38.6067 350.4C37.5054 350.4 36.634 350 35.9928 349.2C35.24 348.245 34.8635 346.68 34.8635 344.504ZM36.3064 344.504C36.3064 346.399 36.5295 347.662 36.9756 348.294C37.4217 348.926 37.9654 349.242 38.6067 349.242C39.2619 349.242 39.8056 348.926 40.2378 348.294C40.6839 347.662 40.907 346.399 40.907 344.504C40.907 342.594 40.6839 341.331 40.2378 340.713C39.8056 340.081 39.2549 339.766 38.5858 339.766C37.9445 339.766 37.4287 340.039 37.0383 340.587C36.5504 341.289 36.3064 342.594 36.3064 344.504ZM44.9847 350.21V348.589H46.5949V350.21C46.5949 350.8 46.4903 351.277 46.2812 351.642C46.0721 352.021 45.7445 352.309 45.2984 352.506L44.901 351.895C45.1938 351.769 45.4099 351.572 45.5493 351.305C45.6887 351.053 45.7724 350.688 45.8002 350.21H44.9847ZM48.2469 344.504C48.2469 343.128 48.3863 342.026 48.6651 341.198C48.9439 340.355 49.3552 339.709 49.8989 339.26C50.4565 338.811 51.1536 338.586 51.99 338.586C52.6034 338.586 53.1402 338.713 53.6002 338.965C54.0742 339.218 54.4646 339.583 54.7713 340.06C55.078 340.524 55.315 341.092 55.4822 341.766C55.6495 342.44 55.7332 343.352 55.7332 344.504C55.7332 345.865 55.5938 346.96 55.315 347.789C55.0501 348.617 54.6388 349.263 54.0812 349.726C53.5375 350.175 52.8404 350.4 51.99 350.4C50.8887 350.4 50.0174 350 49.3761 349.2C48.6233 348.245 48.2469 346.68 48.2469 344.504ZM49.6898 344.504C49.6898 346.399 49.9128 347.662 50.3589 348.294C50.805 348.926 51.3487 349.242 51.99 349.242C52.6453 349.242 53.189 348.926 53.6211 348.294C54.0672 347.662 54.2903 346.399 54.2903 344.504C54.2903 342.594 54.0672 341.331 53.6211 340.713C53.189 340.081 52.6383 339.766 51.9691 339.766C51.3278 339.766 50.812 340.039 50.4217 340.587C49.9337 341.289 49.6898 342.594 49.6898 344.504ZM57.8871 341.408C57.8871 340.58 58.0892 339.878 58.4935 339.302C58.9117 338.727 59.5112 338.439 60.2919 338.439C61.0168 338.439 61.6163 338.699 62.0903 339.218C62.5643 339.738 62.8013 340.496 62.8013 341.492C62.8013 342.475 62.5573 343.233 62.0694 343.767C61.5954 344.286 61.0098 344.546 60.3128 344.546C59.6157 344.546 59.0372 344.286 58.5771 343.767C58.1171 343.247 57.8871 342.461 57.8871 341.408ZM60.3337 339.408C59.9852 339.408 59.6924 339.562 59.4554 339.871C59.2324 340.18 59.1208 340.741 59.1208 341.556C59.1208 342.3 59.2324 342.826 59.4554 343.135C59.6924 343.43 59.9852 343.577 60.3337 343.577C60.6962 343.577 60.9889 343.423 61.212 343.114C61.449 342.805 61.5675 342.25 61.5675 341.45C61.5675 340.692 61.449 340.166 61.212 339.871C60.975 339.562 60.6822 339.408 60.3337 339.408ZM60.3337 350.632L66.628 338.439H67.7782L61.5047 350.632H60.3337ZM65.3106 347.494C65.3106 346.666 65.5128 345.964 65.9171 345.388C66.3353 344.812 66.9417 344.525 67.7364 344.525C68.4613 344.525 69.0607 344.784 69.5347 345.304C70.0087 345.809 70.2457 346.567 70.2457 347.578C70.2457 348.561 70.0018 349.319 69.5138 349.852C69.0398 350.372 68.4473 350.632 67.7364 350.632C67.0532 350.632 66.4747 350.372 66.0007 349.852C65.5407 349.333 65.3106 348.547 65.3106 347.494ZM67.7782 345.493C67.4157 345.493 67.116 345.648 66.879 345.957C66.6559 346.266 66.5444 346.827 66.5444 347.641C66.5444 348.371 66.6629 348.891 66.8999 349.2C67.1369 349.508 67.4297 349.663 67.7782 349.663C68.1267 349.663 68.4195 349.508 68.6565 349.2C68.8935 348.891 69.012 348.329 69.012 347.515C69.012 346.771 68.8935 346.251 68.6565 345.957C68.4195 345.648 68.1267 345.493 67.7782 345.493Z" fill="#9E9E9E"/>
<path d="M24.826 333.364H194.371H221.613" stroke="#757575" stroke-width="0.788177" stroke-miterlimit="10"/>
<path d="M224.29 333.364C224.29 331.876 223.091 330.669 221.613 330.669C220.135 330.669 218.936 331.876 218.936 333.364C218.936 334.853 220.135 336.06 221.613 336.06C223.091 336.06 224.29 334.853 224.29 333.364Z" fill="#9E9E9E"/>
<path d="M732.001 201.827L733.423 201.638C733.577 202.438 733.849 203.021 734.239 203.386C734.629 203.737 735.103 203.912 735.661 203.912C736.33 203.912 736.895 203.68 737.355 203.217C737.815 202.754 738.045 202.178 738.045 201.49C738.045 200.845 737.829 200.311 737.397 199.89C736.978 199.455 736.442 199.237 735.786 199.237C735.522 199.237 735.187 199.293 734.783 199.406L734.95 198.142C735.048 198.156 735.124 198.163 735.18 198.163C735.779 198.163 736.316 198.009 736.79 197.7C737.278 197.377 737.522 196.886 737.522 196.226C737.522 195.707 737.348 195.278 736.999 194.941C736.651 194.59 736.198 194.415 735.64 194.415C735.096 194.415 734.636 194.59 734.26 194.941C733.897 195.292 733.667 195.812 733.57 196.5L732.148 196.247C732.315 195.306 732.705 194.576 733.319 194.057C733.932 193.524 734.692 193.257 735.598 193.257C736.226 193.257 736.804 193.397 737.334 193.678C737.864 193.945 738.268 194.31 738.547 194.773C738.826 195.236 738.965 195.735 738.965 196.268C738.965 196.759 738.833 197.216 738.568 197.637C738.303 198.044 737.912 198.367 737.397 198.606C738.066 198.76 738.589 199.09 738.965 199.595C739.341 200.087 739.53 200.711 739.53 201.469C739.53 202.48 739.16 203.337 738.421 204.038C737.696 204.74 736.776 205.091 735.661 205.091C734.657 205.091 733.821 204.79 733.152 204.186C732.482 203.568 732.099 202.782 732.001 201.827ZM741.37 201.848L742.855 201.722C742.966 202.452 743.217 203 743.607 203.365C744.012 203.73 744.5 203.912 745.071 203.912C745.74 203.912 746.312 203.652 746.786 203.133C747.26 202.614 747.497 201.933 747.497 201.09C747.497 200.276 747.267 199.637 746.807 199.174C746.361 198.697 745.768 198.458 745.029 198.458C744.583 198.458 744.172 198.563 743.796 198.774C743.433 198.985 743.147 199.251 742.938 199.574L741.621 199.406L742.729 193.467H748.459V194.815H743.858L743.252 197.932C743.935 197.44 744.653 197.195 745.406 197.195C746.409 197.195 747.253 197.546 747.936 198.248C748.633 198.949 748.982 199.855 748.982 200.964C748.982 202.003 748.682 202.908 748.082 203.68C747.343 204.607 746.34 205.07 745.071 205.07C744.026 205.07 743.168 204.775 742.499 204.186C741.844 203.596 741.467 202.817 741.37 201.848ZM751.491 204.881V203.259H753.101V204.881C753.101 205.47 752.997 205.948 752.787 206.313C752.578 206.692 752.251 206.98 751.805 207.176L751.407 206.565C751.7 206.439 751.916 206.243 752.056 205.976C752.195 205.723 752.279 205.358 752.306 204.881H751.491ZM754.753 199.174C754.753 197.798 754.893 196.696 755.171 195.868C755.45 195.026 755.861 194.38 756.405 193.931C756.963 193.481 757.66 193.257 758.496 193.257C759.11 193.257 759.646 193.383 760.106 193.636C760.58 193.889 760.971 194.254 761.278 194.731C761.584 195.194 761.821 195.763 761.988 196.437C762.156 197.11 762.239 198.023 762.239 199.174C762.239 200.536 762.1 201.631 761.821 202.459C761.556 203.287 761.145 203.933 760.587 204.396C760.044 204.846 759.347 205.07 758.496 205.07C757.395 205.07 756.524 204.67 755.882 203.87C755.13 202.915 754.753 201.35 754.753 199.174ZM756.196 199.174C756.196 201.069 756.419 202.333 756.865 202.964C757.311 203.596 757.855 203.912 758.496 203.912C759.151 203.912 759.695 203.596 760.127 202.964C760.573 202.333 760.797 201.069 760.797 199.174C760.797 197.265 760.573 196.001 760.127 195.384C759.695 194.752 759.145 194.436 758.475 194.436C757.834 194.436 757.318 194.71 756.928 195.257C756.44 195.959 756.196 197.265 756.196 199.174ZM764.393 196.079C764.393 195.25 764.595 194.548 765 193.973C765.418 193.397 766.017 193.109 766.798 193.109C767.523 193.109 768.123 193.369 768.597 193.889C769.07 194.408 769.308 195.166 769.308 196.163C769.308 197.145 769.064 197.904 768.576 198.437C768.102 198.956 767.516 199.216 766.819 199.216C766.122 199.216 765.543 198.956 765.083 198.437C764.623 197.918 764.393 197.131 764.393 196.079ZM766.84 194.078C766.491 194.078 766.199 194.232 765.962 194.541C765.739 194.85 765.627 195.412 765.627 196.226C765.627 196.97 765.739 197.496 765.962 197.805C766.199 198.1 766.491 198.248 766.84 198.248C767.202 198.248 767.495 198.093 767.718 197.784C767.955 197.475 768.074 196.921 768.074 196.121C768.074 195.363 767.955 194.836 767.718 194.541C767.481 194.232 767.188 194.078 766.84 194.078ZM766.84 205.302L773.134 193.109H774.284L768.011 205.302H766.84ZM771.817 202.164C771.817 201.336 772.019 200.634 772.423 200.058C772.842 199.483 773.448 199.195 774.243 199.195C774.968 199.195 775.567 199.455 776.041 199.974C776.515 200.48 776.752 201.238 776.752 202.249C776.752 203.231 776.508 203.989 776.02 204.523C775.546 205.042 774.954 205.302 774.243 205.302C773.56 205.302 772.981 205.042 772.507 204.523C772.047 204.003 771.817 203.217 771.817 202.164ZM774.284 200.164C773.922 200.164 773.622 200.318 773.385 200.627C773.162 200.936 773.051 201.497 773.051 202.312C773.051 203.042 773.169 203.561 773.406 203.87C773.643 204.179 773.936 204.333 774.284 204.333C774.633 204.333 774.926 204.179 775.163 203.87C775.4 203.561 775.518 203 775.518 202.185C775.518 201.441 775.4 200.922 775.163 200.627C774.926 200.318 774.633 200.164 774.284 200.164Z" fill="#9E9E9E"/>
<path d="M778.174 188.035H608.629H570.029" stroke="#757575" stroke-width="0.788177" stroke-miterlimit="10"/>
<path d="M572.706 188.034C572.706 186.546 571.507 185.339 570.029 185.339C568.551 185.339 567.352 186.546 567.352 188.034C567.352 189.523 568.551 190.73 570.029 190.73C571.507 190.73 572.706 189.523 572.706 188.034Z" fill="#9E9E9E"/>
<path d="M739.425 469.588V470.957H731.813C731.813 470.62 731.869 470.29 731.981 469.967C732.176 469.448 732.482 468.935 732.901 468.43C733.333 467.925 733.953 467.342 734.762 466.682C736.016 465.643 736.86 464.822 737.292 464.218C737.738 463.615 737.961 463.046 737.961 462.513C737.961 461.951 737.759 461.481 737.355 461.102C736.951 460.709 736.428 460.512 735.786 460.512C735.103 460.512 734.56 460.716 734.155 461.123C733.751 461.53 733.542 462.099 733.528 462.829L732.085 462.681C732.183 461.586 732.552 460.758 733.193 460.196C733.849 459.621 734.727 459.333 735.828 459.333C736.93 459.333 737.801 459.642 738.442 460.26C739.083 460.877 739.404 461.642 739.404 462.555C739.404 463.018 739.307 463.474 739.111 463.924C738.93 464.359 738.616 464.829 738.17 465.334C737.738 465.826 737.02 466.5 736.016 467.356C735.166 468.072 734.615 468.563 734.364 468.83C734.127 469.083 733.932 469.335 733.779 469.588H739.425ZM741.37 467.925L742.854 467.798C742.966 468.528 743.217 469.076 743.607 469.441C744.012 469.806 744.5 469.988 745.071 469.988C745.74 469.988 746.312 469.729 746.786 469.209C747.26 468.69 747.497 468.009 747.497 467.167C747.497 466.352 747.267 465.714 746.807 465.25C746.361 464.773 745.768 464.534 745.029 464.534C744.583 464.534 744.172 464.64 743.795 464.85C743.433 465.061 743.147 465.327 742.938 465.65L741.621 465.482L742.729 459.544H748.459V460.891H743.858L743.252 464.008C743.935 463.516 744.653 463.271 745.406 463.271C746.409 463.271 747.253 463.622 747.936 464.324C748.633 465.026 748.982 465.931 748.982 467.04C748.982 468.079 748.682 468.984 748.082 469.757C747.343 470.683 746.34 471.146 745.071 471.146C744.026 471.146 743.168 470.852 742.499 470.262C741.844 469.672 741.467 468.893 741.37 467.925ZM751.491 470.957V469.335H753.101V470.957C753.101 471.547 752.997 472.024 752.787 472.389C752.578 472.768 752.251 473.056 751.805 473.252L751.407 472.642C751.7 472.515 751.916 472.319 752.056 472.052C752.195 471.799 752.279 471.434 752.306 470.957H751.491ZM754.753 465.25C754.753 463.874 754.893 462.772 755.171 461.944C755.45 461.102 755.861 460.456 756.405 460.007C756.963 459.558 757.66 459.333 758.496 459.333C759.11 459.333 759.646 459.459 760.106 459.712C760.58 459.965 760.971 460.33 761.277 460.807C761.584 461.27 761.821 461.839 761.988 462.513C762.156 463.187 762.239 464.099 762.239 465.25C762.239 466.612 762.1 467.707 761.821 468.535C761.556 469.364 761.145 470.009 760.587 470.473C760.044 470.922 759.347 471.146 758.496 471.146C757.395 471.146 756.524 470.746 755.882 469.946C755.129 468.992 754.753 467.426 754.753 465.25ZM756.196 465.25C756.196 467.145 756.419 468.409 756.865 469.041C757.311 469.672 757.855 469.988 758.496 469.988C759.151 469.988 759.695 469.672 760.127 469.041C760.573 468.409 760.797 467.145 760.797 465.25C760.797 463.341 760.573 462.078 760.127 461.46C759.695 460.828 759.145 460.512 758.475 460.512C757.834 460.512 757.318 460.786 756.928 461.333C756.44 462.035 756.196 463.341 756.196 465.25ZM764.393 462.155C764.393 461.326 764.595 460.625 765 460.049C765.418 459.473 766.017 459.186 766.798 459.186C767.523 459.186 768.122 459.445 768.596 459.965C769.07 460.484 769.307 461.242 769.307 462.239C769.307 463.222 769.063 463.98 768.576 464.513C768.102 465.033 767.516 465.292 766.819 465.292C766.122 465.292 765.543 465.033 765.083 464.513C764.623 463.994 764.393 463.208 764.393 462.155ZM766.84 460.154C766.491 460.154 766.199 460.309 765.962 460.617C765.739 460.926 765.627 461.488 765.627 462.302C765.627 463.046 765.739 463.573 765.962 463.881C766.199 464.176 766.491 464.324 766.84 464.324C767.202 464.324 767.495 464.169 767.718 463.86C767.955 463.552 768.074 462.997 768.074 462.197C768.074 461.439 767.955 460.912 767.718 460.617C767.481 460.309 767.188 460.154 766.84 460.154ZM766.84 471.378L773.134 459.186H774.284L768.011 471.378H766.84ZM771.817 468.24C771.817 467.412 772.019 466.71 772.423 466.135C772.842 465.559 773.448 465.271 774.243 465.271C774.968 465.271 775.567 465.531 776.041 466.05C776.515 466.556 776.752 467.314 776.752 468.325C776.752 469.307 776.508 470.065 776.02 470.599C775.546 471.118 774.954 471.378 774.243 471.378C773.559 471.378 772.981 471.118 772.507 470.599C772.047 470.08 771.817 469.293 771.817 468.24ZM774.284 466.24C773.922 466.24 773.622 466.394 773.385 466.703C773.162 467.012 773.051 467.574 773.051 468.388C773.051 469.118 773.169 469.637 773.406 469.946C773.643 470.255 773.936 470.409 774.284 470.409C774.633 470.409 774.926 470.255 775.163 469.946C775.4 469.637 775.518 469.076 775.518 468.262C775.518 467.517 775.4 466.998 775.163 466.703C774.926 466.394 774.633 466.24 774.284 466.24Z" fill="#9E9E9E"/>
<path d="M778.174 454.11H608.629L431.089 462.63" stroke="#757575" stroke-width="0.788177" stroke-miterlimit="10"/>
<path d="M433.765 462.63C433.765 461.142 432.567 459.935 431.089 459.935C429.611 459.935 428.412 461.142 428.412 462.63C428.412 464.119 429.611 465.326 431.089 465.326C432.567 465.326 433.765 464.119 433.765 462.63Z" fill="#9E9E9E"/>
<path d="M675.796 184V170.909H683.646V172.315H677.381V176.739H683.058V178.145H677.381V184H675.796ZM691.728 179.986V174.182H693.237V184H691.728V182.338H691.626C691.396 182.837 691.038 183.261 690.552 183.61C690.066 183.955 689.453 184.128 688.711 184.128C688.098 184.128 687.552 183.994 687.075 183.725C686.598 183.452 686.223 183.043 685.95 182.498C685.677 181.948 685.541 181.256 685.541 180.42V174.182H687.049V180.318C687.049 181.034 687.25 181.605 687.65 182.031C688.055 182.457 688.571 182.67 689.197 182.67C689.572 182.67 689.953 182.575 690.341 182.383C690.733 182.191 691.061 181.897 691.326 181.501C691.594 181.104 691.728 180.599 691.728 179.986ZM697.508 178.094V184H696V174.182H697.457V175.716H697.585C697.815 175.217 698.165 174.817 698.633 174.514C699.102 174.207 699.707 174.054 700.449 174.054C701.113 174.054 701.695 174.19 702.194 174.463C702.692 174.732 703.08 175.141 703.357 175.69C703.634 176.236 703.773 176.926 703.773 177.761V184H702.264V177.864C702.264 177.092 702.064 176.491 701.663 176.061C701.263 175.626 700.713 175.409 700.014 175.409C699.532 175.409 699.102 175.513 698.723 175.722C698.348 175.931 698.052 176.236 697.834 176.636C697.617 177.037 697.508 177.523 697.508 178.094ZM710.518 184.205C709.597 184.205 708.805 183.987 708.14 183.553C707.475 183.118 706.964 182.519 706.606 181.756C706.248 180.994 706.069 180.122 706.069 179.142C706.069 178.145 706.252 177.265 706.619 176.502C706.989 175.735 707.505 175.136 708.165 174.706C708.83 174.271 709.606 174.054 710.492 174.054C711.183 174.054 711.805 174.182 712.359 174.438C712.913 174.693 713.366 175.051 713.72 175.511C714.074 175.972 714.293 176.509 714.379 177.122H712.87C712.755 176.675 712.499 176.278 712.103 175.933C711.711 175.584 711.183 175.409 710.518 175.409C709.93 175.409 709.414 175.562 708.971 175.869C708.532 176.172 708.189 176.6 707.942 177.154C707.699 177.704 707.577 178.349 707.577 179.091C707.577 179.849 707.697 180.51 707.935 181.072C708.178 181.635 708.519 182.072 708.958 182.383C709.401 182.694 709.921 182.849 710.518 182.849C710.91 182.849 711.266 182.781 711.585 182.645C711.905 182.509 712.175 182.312 712.397 182.057C712.619 181.801 712.776 181.494 712.87 181.136H714.379C714.293 181.716 714.082 182.238 713.746 182.702C713.413 183.163 712.972 183.529 712.423 183.802C711.877 184.07 711.242 184.205 710.518 184.205ZM716.584 184V174.182H718.092V184H716.584ZM717.351 172.545C717.057 172.545 716.803 172.445 716.59 172.245C716.381 172.045 716.277 171.804 716.277 171.523C716.277 171.241 716.381 171.001 716.59 170.8C716.803 170.6 717.057 170.5 717.351 170.5C717.645 170.5 717.896 170.6 718.105 170.8C718.318 171.001 718.425 171.241 718.425 171.523C718.425 171.804 718.318 172.045 718.105 172.245C717.896 172.445 717.645 172.545 717.351 172.545ZM724.844 184.205C723.958 184.205 723.18 183.994 722.511 183.572C721.846 183.15 721.326 182.56 720.951 181.801C720.58 181.043 720.395 180.156 720.395 179.142C720.395 178.119 720.58 177.227 720.951 176.464C721.326 175.701 721.846 175.109 722.511 174.687C723.18 174.265 723.958 174.054 724.844 174.054C725.73 174.054 726.506 174.265 727.171 174.687C727.84 175.109 728.36 175.701 728.73 176.464C729.105 177.227 729.293 178.119 729.293 179.142C729.293 180.156 729.105 181.043 728.73 181.801C728.36 182.56 727.84 183.15 727.171 183.572C726.506 183.994 725.73 184.205 724.844 184.205ZM724.844 182.849C725.517 182.849 726.071 182.677 726.506 182.332C726.941 181.987 727.262 181.533 727.471 180.97C727.68 180.408 727.784 179.798 727.784 179.142C727.784 178.486 727.68 177.874 727.471 177.308C727.262 176.741 726.941 176.283 726.506 175.933C726.071 175.584 725.517 175.409 724.844 175.409C724.171 175.409 723.617 175.584 723.182 175.933C722.747 176.283 722.426 176.741 722.217 177.308C722.008 177.874 721.904 178.486 721.904 179.142C721.904 179.798 722.008 180.408 722.217 180.97C722.426 181.533 722.747 181.987 723.182 182.332C723.617 182.677 724.171 182.849 724.844 182.849ZM733.104 178.094V184H731.596V174.182H733.053V175.716H733.181C733.411 175.217 733.76 174.817 734.229 174.514C734.698 174.207 735.303 174.054 736.044 174.054C736.709 174.054 737.291 174.19 737.789 174.463C738.288 174.732 738.676 175.141 738.953 175.69C739.23 176.236 739.368 176.926 739.368 177.761V184H737.86V177.864C737.86 177.092 737.659 176.491 737.259 176.061C736.858 175.626 736.309 175.409 735.61 175.409C735.128 175.409 734.698 175.513 734.319 175.722C733.944 175.931 733.647 176.236 733.43 176.636C733.213 177.037 733.104 177.523 733.104 178.094ZM745.014 184.23C744.392 184.23 743.827 184.113 743.32 183.879C742.813 183.64 742.41 183.297 742.112 182.849C741.814 182.398 741.665 181.852 741.665 181.213C741.665 180.651 741.775 180.195 741.997 179.845C742.219 179.491 742.515 179.214 742.885 179.014C743.256 178.814 743.665 178.665 744.113 178.567C744.564 178.464 745.018 178.384 745.474 178.324C746.071 178.247 746.555 178.19 746.925 178.151C747.3 178.109 747.573 178.038 747.743 177.94C747.918 177.842 748.006 177.672 748.006 177.429V177.378C748.006 176.747 747.833 176.257 747.488 175.908C747.147 175.558 746.629 175.384 745.934 175.384C745.214 175.384 744.65 175.541 744.241 175.857C743.831 176.172 743.544 176.509 743.378 176.866L741.946 176.355C742.202 175.759 742.542 175.294 742.969 174.962C743.399 174.625 743.868 174.391 744.375 174.259C744.886 174.122 745.389 174.054 745.883 174.054C746.199 174.054 746.561 174.092 746.97 174.169C747.383 174.241 747.782 174.393 748.165 174.623C748.553 174.853 748.875 175.2 749.131 175.665C749.386 176.129 749.514 176.751 749.514 177.531V184H748.006V182.67H747.929C747.827 182.884 747.656 183.112 747.417 183.354C747.179 183.597 746.861 183.804 746.465 183.974C746.069 184.145 745.585 184.23 745.014 184.23ZM745.244 182.875C745.841 182.875 746.344 182.758 746.753 182.523C747.166 182.289 747.477 181.987 747.686 181.616C747.899 181.245 748.006 180.855 748.006 180.446V179.065C747.942 179.142 747.801 179.212 747.584 179.276C747.371 179.336 747.123 179.389 746.842 179.436C746.565 179.479 746.295 179.517 746.03 179.551C745.77 179.581 745.559 179.607 745.398 179.628C745.006 179.679 744.639 179.762 744.298 179.877C743.961 179.988 743.689 180.156 743.48 180.382C743.275 180.604 743.173 180.906 743.173 181.29C743.173 181.814 743.367 182.21 743.755 182.479C744.147 182.743 744.643 182.875 745.244 182.875ZM745.295 172.852L746.855 169.886H748.619L746.625 172.852H745.295ZM752.267 184V174.182H753.725V175.665H753.827C754.006 175.179 754.33 174.785 754.799 174.482C755.267 174.18 755.796 174.028 756.384 174.028C756.495 174.028 756.633 174.031 756.799 174.035C756.966 174.039 757.091 174.045 757.176 174.054V175.588C757.125 175.575 757.008 175.556 756.825 175.531C756.646 175.501 756.456 175.486 756.256 175.486C755.779 175.486 755.353 175.586 754.978 175.786C754.607 175.982 754.313 176.255 754.096 176.604C753.882 176.95 753.776 177.344 753.776 177.787V184H752.267ZM758.965 184V174.182H760.473V184H758.965ZM759.732 172.545C759.438 172.545 759.184 172.445 758.971 172.245C758.762 172.045 758.658 171.804 758.658 171.523C758.658 171.241 758.762 171.001 758.971 170.8C759.184 170.6 759.438 170.5 759.732 170.5C760.026 170.5 760.277 170.6 760.486 170.8C760.699 171.001 760.806 171.241 760.806 171.523C760.806 171.804 760.699 172.045 760.486 172.245C760.277 172.445 760.026 172.545 759.732 172.545ZM767.225 184.205C766.338 184.205 765.561 183.994 764.892 183.572C764.227 183.15 763.707 182.56 763.332 181.801C762.961 181.043 762.776 180.156 762.776 179.142C762.776 178.119 762.961 177.227 763.332 176.464C763.707 175.701 764.227 175.109 764.892 174.687C765.561 174.265 766.338 174.054 767.225 174.054C768.111 174.054 768.887 174.265 769.551 174.687C770.221 175.109 770.74 175.701 771.111 176.464C771.486 177.227 771.674 178.119 771.674 179.142C771.674 180.156 771.486 181.043 771.111 181.801C770.74 182.56 770.221 183.15 769.551 183.572C768.887 183.994 768.111 184.205 767.225 184.205ZM767.225 182.849C767.898 182.849 768.452 182.677 768.887 182.332C769.321 181.987 769.643 181.533 769.852 180.97C770.061 180.408 770.165 179.798 770.165 179.142C770.165 178.486 770.061 177.874 769.852 177.308C769.643 176.741 769.321 176.283 768.887 175.933C768.452 175.584 767.898 175.409 767.225 175.409C766.551 175.409 765.998 175.584 765.563 175.933C765.128 176.283 764.806 176.741 764.598 177.308C764.389 177.874 764.284 178.486 764.284 179.142C764.284 179.798 764.389 180.408 764.598 180.97C764.806 181.533 765.128 181.987 765.563 182.332C765.998 182.677 766.551 182.849 767.225 182.849ZM780.931 176.381L779.576 176.764C779.491 176.538 779.365 176.319 779.199 176.106C779.037 175.888 778.815 175.71 778.534 175.569C778.253 175.428 777.893 175.358 777.454 175.358C776.853 175.358 776.352 175.496 775.952 175.773C775.555 176.046 775.357 176.393 775.357 176.815C775.357 177.19 775.493 177.487 775.766 177.704C776.039 177.921 776.465 178.102 777.045 178.247L778.502 178.605C779.38 178.818 780.034 179.144 780.464 179.583C780.895 180.018 781.11 180.578 781.11 181.264C781.11 181.827 780.948 182.33 780.624 182.773C780.305 183.216 779.857 183.565 779.282 183.821C778.706 184.077 778.037 184.205 777.275 184.205C776.273 184.205 775.444 183.987 774.788 183.553C774.132 183.118 773.716 182.483 773.542 181.648L774.974 181.29C775.11 181.818 775.368 182.214 775.747 182.479C776.131 182.743 776.631 182.875 777.249 182.875C777.952 182.875 778.51 182.726 778.924 182.428C779.341 182.125 779.55 181.763 779.55 181.341C779.55 181 779.431 180.714 779.192 180.484C778.954 180.25 778.587 180.075 778.093 179.96L776.456 179.577C775.557 179.364 774.897 179.033 774.475 178.586C774.057 178.134 773.849 177.57 773.849 176.892C773.849 176.338 774.004 175.848 774.315 175.422C774.631 174.996 775.059 174.661 775.6 174.418C776.145 174.175 776.763 174.054 777.454 174.054C778.425 174.054 779.188 174.267 779.742 174.693C780.3 175.119 780.697 175.682 780.931 176.381Z" fill="black"/>
<path d="M666.568 450V436.909H674.417V438.315H668.153V442.739H673.829V444.145H668.153V450H666.568ZM680.195 450.205C679.309 450.205 678.531 449.994 677.862 449.572C677.198 449.15 676.678 448.56 676.303 447.801C675.932 447.043 675.747 446.156 675.747 445.142C675.747 444.119 675.932 443.227 676.303 442.464C676.678 441.701 677.198 441.109 677.862 440.687C678.531 440.265 679.309 440.054 680.195 440.054C681.082 440.054 681.857 440.265 682.522 440.687C683.191 441.109 683.711 441.701 684.082 442.464C684.457 443.227 684.644 444.119 684.644 445.142C684.644 446.156 684.457 447.043 684.082 447.801C683.711 448.56 683.191 449.15 682.522 449.572C681.857 449.994 681.082 450.205 680.195 450.205ZM680.195 448.849C680.869 448.849 681.423 448.677 681.857 448.332C682.292 447.987 682.614 447.533 682.823 446.97C683.031 446.408 683.136 445.798 683.136 445.142C683.136 444.486 683.031 443.874 682.823 443.308C682.614 442.741 682.292 442.283 681.857 441.933C681.423 441.584 680.869 441.409 680.195 441.409C679.522 441.409 678.968 441.584 678.534 441.933C678.099 442.283 677.777 442.741 677.568 443.308C677.36 443.874 677.255 444.486 677.255 445.142C677.255 445.798 677.36 446.408 677.568 446.97C677.777 447.533 678.099 447.987 678.534 448.332C678.968 448.677 679.522 448.849 680.195 448.849ZM686.947 450V440.182H688.404V441.665H688.507C688.686 441.179 689.01 440.785 689.478 440.482C689.947 440.18 690.475 440.028 691.064 440.028C691.174 440.028 691.313 440.031 691.479 440.035C691.645 440.039 691.771 440.045 691.856 440.054V441.588C691.805 441.575 691.688 441.556 691.505 441.531C691.326 441.501 691.136 441.486 690.936 441.486C690.458 441.486 690.032 441.586 689.657 441.786C689.287 441.982 688.993 442.255 688.775 442.604C688.562 442.95 688.456 443.344 688.456 443.787V450H686.947ZM695.153 444.094V450H693.644V440.182H695.102V441.716H695.23C695.46 441.217 695.809 440.817 696.278 440.514C696.747 440.207 697.352 440.054 698.093 440.054C698.758 440.054 699.34 440.19 699.838 440.463C700.337 440.732 700.725 441.141 701.002 441.69C701.279 442.236 701.417 442.926 701.417 443.761V450H699.909V443.864C699.909 443.092 699.708 442.491 699.308 442.061C698.907 441.626 698.357 441.409 697.659 441.409C697.177 441.409 696.747 441.513 696.367 441.722C695.992 441.931 695.696 442.236 695.479 442.636C695.262 443.037 695.153 443.523 695.153 444.094ZM708.29 450.205C707.344 450.205 706.528 449.996 705.842 449.578C705.16 449.156 704.634 448.568 704.263 447.814C703.897 447.055 703.713 446.173 703.713 445.168C703.713 444.162 703.897 443.276 704.263 442.509C704.634 441.737 705.15 441.136 705.81 440.706C706.475 440.271 707.25 440.054 708.137 440.054C708.648 440.054 709.153 440.139 709.652 440.31C710.15 440.48 710.604 440.757 711.013 441.141C711.422 441.52 711.748 442.023 711.991 442.649C712.234 443.276 712.355 444.047 712.355 444.963V445.602H704.787V444.298H710.821C710.821 443.744 710.711 443.25 710.489 442.815C710.272 442.381 709.961 442.038 709.556 441.786C709.155 441.535 708.682 441.409 708.137 441.409C707.536 441.409 707.016 441.558 706.577 441.857C706.142 442.151 705.808 442.534 705.574 443.007C705.339 443.48 705.222 443.987 705.222 444.528V445.398C705.222 446.139 705.35 446.768 705.605 447.283C705.865 447.795 706.225 448.185 706.686 448.453C707.146 448.717 707.681 448.849 708.29 448.849C708.686 448.849 709.044 448.794 709.364 448.683C709.688 448.568 709.967 448.398 710.201 448.172C710.436 447.942 710.617 447.656 710.745 447.315L712.202 447.724C712.049 448.219 711.791 448.653 711.429 449.028C711.066 449.399 710.619 449.689 710.086 449.898C709.554 450.102 708.955 450.205 708.29 450.205ZM718.639 450.205C717.718 450.205 716.926 449.987 716.261 449.553C715.596 449.118 715.085 448.519 714.727 447.756C714.369 446.994 714.19 446.122 714.19 445.142C714.19 444.145 714.373 443.265 714.74 442.502C715.11 441.735 715.626 441.136 716.287 440.706C716.951 440.271 717.727 440.054 718.613 440.054C719.304 440.054 719.926 440.182 720.48 440.438C721.034 440.693 721.488 441.051 721.841 441.511C722.195 441.972 722.414 442.509 722.5 443.122H720.991C720.876 442.675 720.62 442.278 720.224 441.933C719.832 441.584 719.304 441.409 718.639 441.409C718.051 441.409 717.535 441.562 717.092 441.869C716.653 442.172 716.31 442.6 716.063 443.154C715.82 443.704 715.699 444.349 715.699 445.091C715.699 445.849 715.818 446.51 716.056 447.072C716.299 447.635 716.64 448.072 717.079 448.383C717.522 448.694 718.042 448.849 718.639 448.849C719.031 448.849 719.387 448.781 719.706 448.645C720.026 448.509 720.297 448.312 720.518 448.057C720.74 447.801 720.897 447.494 720.991 447.136H722.5C722.414 447.716 722.203 448.238 721.867 448.702C721.534 449.163 721.093 449.529 720.544 449.802C719.998 450.07 719.363 450.205 718.639 450.205ZM728.821 450.205C727.875 450.205 727.059 449.996 726.373 449.578C725.691 449.156 725.165 448.568 724.794 447.814C724.428 447.055 724.245 446.173 724.245 445.168C724.245 444.162 724.428 443.276 724.794 442.509C725.165 441.737 725.681 441.136 726.341 440.706C727.006 440.271 727.782 440.054 728.668 440.054C729.179 440.054 729.684 440.139 730.183 440.31C730.681 440.48 731.135 440.757 731.544 441.141C731.953 441.52 732.279 442.023 732.522 442.649C732.765 443.276 732.887 444.047 732.887 444.963V445.602H725.319V444.298H731.353C731.353 443.744 731.242 443.25 731.02 442.815C730.803 442.381 730.492 442.038 730.087 441.786C729.686 441.535 729.213 441.409 728.668 441.409C728.067 441.409 727.547 441.558 727.108 441.857C726.674 442.151 726.339 442.534 726.105 443.007C725.87 443.48 725.753 443.987 725.753 444.528V445.398C725.753 446.139 725.881 446.768 726.137 447.283C726.397 447.795 726.757 448.185 727.217 448.453C727.677 448.717 728.212 448.849 728.821 448.849C729.218 448.849 729.576 448.794 729.895 448.683C730.219 448.568 730.498 448.398 730.733 448.172C730.967 447.942 731.148 447.656 731.276 447.315L732.733 447.724C732.58 448.219 732.322 448.653 731.96 449.028C731.598 449.399 731.15 449.689 730.618 449.898C730.085 450.102 729.486 450.205 728.821 450.205ZM738.889 450.205C738.071 450.205 737.348 449.998 736.722 449.585C736.096 449.167 735.605 448.579 735.252 447.82C734.898 447.058 734.721 446.156 734.721 445.116C734.721 444.085 734.898 443.19 735.252 442.432C735.605 441.673 736.098 441.087 736.728 440.674C737.359 440.261 738.088 440.054 738.914 440.054C739.554 440.054 740.059 440.161 740.429 440.374C740.804 440.582 741.09 440.821 741.286 441.089C741.486 441.354 741.642 441.571 741.752 441.741H741.88V436.909H743.389V450H741.931V448.491H741.752C741.642 448.67 741.484 448.896 741.279 449.169C741.075 449.437 740.783 449.678 740.404 449.891C740.025 450.1 739.52 450.205 738.889 450.205ZM739.093 448.849C739.699 448.849 740.21 448.692 740.627 448.376C741.045 448.057 741.363 447.616 741.58 447.053C741.797 446.487 741.906 445.832 741.906 445.091C741.906 444.358 741.799 443.717 741.586 443.167C741.373 442.613 741.058 442.183 740.64 441.876C740.223 441.565 739.707 441.409 739.093 441.409C738.454 441.409 737.922 441.573 737.495 441.901C737.074 442.225 736.756 442.666 736.543 443.224C736.334 443.778 736.23 444.401 736.23 445.091C736.23 445.79 736.336 446.425 736.549 446.996C736.767 447.562 737.086 448.014 737.508 448.351C737.934 448.683 738.463 448.849 739.093 448.849ZM750.35 450.205C749.463 450.205 748.686 449.994 748.017 449.572C747.352 449.15 746.832 448.56 746.457 447.801C746.086 447.043 745.901 446.156 745.901 445.142C745.901 444.119 746.086 443.227 746.457 442.464C746.832 441.701 747.352 441.109 748.017 440.687C748.686 440.265 749.463 440.054 750.35 440.054C751.236 440.054 752.012 440.265 752.676 440.687C753.346 441.109 753.865 441.701 754.236 442.464C754.611 443.227 754.799 444.119 754.799 445.142C754.799 446.156 754.611 447.043 754.236 447.801C753.865 448.56 753.346 449.15 752.676 449.572C752.012 449.994 751.236 450.205 750.35 450.205ZM750.35 448.849C751.023 448.849 751.577 448.677 752.012 448.332C752.446 447.987 752.768 447.533 752.977 446.97C753.186 446.408 753.29 445.798 753.29 445.142C753.29 444.486 753.186 443.874 752.977 443.308C752.768 442.741 752.446 442.283 752.012 441.933C751.577 441.584 751.023 441.409 750.35 441.409C749.676 441.409 749.123 441.584 748.688 441.933C748.253 442.283 747.931 442.741 747.723 443.308C747.514 443.874 747.409 444.486 747.409 445.142C747.409 445.798 747.514 446.408 747.723 446.97C747.931 447.533 748.253 447.987 748.688 448.332C749.123 448.677 749.676 448.849 750.35 448.849ZM757.101 450V440.182H758.559V441.665H758.661C758.84 441.179 759.164 440.785 759.633 440.482C760.101 440.18 760.63 440.028 761.218 440.028C761.329 440.028 761.467 440.031 761.633 440.035C761.8 440.039 761.925 440.045 762.01 440.054V441.588C761.959 441.575 761.842 441.556 761.659 441.531C761.48 441.501 761.29 441.486 761.09 441.486C760.613 441.486 760.187 441.586 759.812 441.786C759.441 441.982 759.147 442.255 758.93 442.604C758.716 442.95 758.61 443.344 758.61 443.787V450H757.101ZM767.616 450.205C766.67 450.205 765.854 449.996 765.168 449.578C764.486 449.156 763.96 448.568 763.589 447.814C763.223 447.055 763.04 446.173 763.04 445.168C763.04 444.162 763.223 443.276 763.589 442.509C763.96 441.737 764.476 441.136 765.136 440.706C765.801 440.271 766.577 440.054 767.463 440.054C767.974 440.054 768.479 440.139 768.978 440.31C769.476 440.48 769.93 440.757 770.339 441.141C770.748 441.52 771.074 442.023 771.317 442.649C771.56 443.276 771.682 444.047 771.682 444.963V445.602H764.113V444.298H770.148C770.148 443.744 770.037 443.25 769.815 442.815C769.598 442.381 769.287 442.038 768.882 441.786C768.481 441.535 768.008 441.409 767.463 441.409C766.862 441.409 766.342 441.558 765.903 441.857C765.469 442.151 765.134 442.534 764.9 443.007C764.665 443.48 764.548 443.987 764.548 444.528V445.398C764.548 446.139 764.676 446.768 764.932 447.283C765.192 447.795 765.552 448.185 766.012 448.453C766.472 448.717 767.007 448.849 767.616 448.849C768.013 448.849 768.371 448.794 768.69 448.683C769.014 448.568 769.293 448.398 769.528 448.172C769.762 447.942 769.943 447.656 770.071 447.315L771.528 447.724C771.375 448.219 771.117 448.653 770.755 449.028C770.393 449.399 769.945 449.689 769.412 449.898C768.88 450.102 768.281 450.205 767.616 450.205ZM780.931 442.381L779.576 442.764C779.491 442.538 779.365 442.319 779.199 442.106C779.037 441.888 778.815 441.71 778.534 441.569C778.253 441.428 777.893 441.358 777.454 441.358C776.853 441.358 776.352 441.496 775.952 441.773C775.555 442.046 775.357 442.393 775.357 442.815C775.357 443.19 775.493 443.487 775.766 443.704C776.039 443.921 776.465 444.102 777.045 444.247L778.502 444.605C779.38 444.818 780.034 445.144 780.464 445.583C780.895 446.018 781.11 446.578 781.11 447.264C781.11 447.827 780.948 448.33 780.624 448.773C780.305 449.216 779.857 449.565 779.282 449.821C778.706 450.077 778.037 450.205 777.275 450.205C776.273 450.205 775.444 449.987 774.788 449.553C774.132 449.118 773.716 448.483 773.542 447.648L774.974 447.29C775.11 447.818 775.368 448.214 775.747 448.479C776.131 448.743 776.631 448.875 777.249 448.875C777.952 448.875 778.51 448.726 778.924 448.428C779.341 448.125 779.55 447.763 779.55 447.341C779.55 447 779.431 446.714 779.192 446.484C778.954 446.25 778.587 446.075 778.093 445.96L776.456 445.577C775.557 445.364 774.897 445.033 774.475 444.586C774.057 444.134 773.849 443.57 773.849 442.892C773.849 442.338 774.004 441.848 774.315 441.422C774.631 440.996 775.059 440.661 775.6 440.418C776.145 440.175 776.763 440.054 777.454 440.054C778.425 440.054 779.188 440.267 779.742 440.693C780.3 441.119 780.697 441.682 780.931 442.381Z" fill="black"/>
<path d="M29.1222 329H27.4602L32.267 315.909H33.9034L38.7102 329H37.0483L33.1364 317.98H33.0341L29.1222 329ZM29.7358 323.886H36.4347V325.293H29.7358V323.886ZM42.0533 315.909V329H40.5447V315.909H42.0533ZM51.0037 324.986V319.182H52.5123V329H51.0037V327.338H50.9015C50.6713 327.837 50.3134 328.261 49.8276 328.61C49.3418 328.955 48.7282 329.128 47.9867 329.128C47.373 329.128 46.8276 328.994 46.3503 328.725C45.873 328.452 45.498 328.043 45.2253 327.498C44.9526 326.948 44.8162 326.256 44.8162 325.42V319.182H46.3248V325.318C46.3248 326.034 46.525 326.605 46.9256 327.031C47.3304 327.457 47.8461 327.67 48.4725 327.67C48.8475 327.67 49.2289 327.575 49.6167 327.383C50.0087 327.191 50.3368 326.897 50.601 326.501C50.8695 326.104 51.0037 325.599 51.0037 324.986ZM59.2383 332.886C58.5096 332.886 57.8832 332.793 57.359 332.605C56.8349 332.422 56.3981 332.179 56.0487 331.876C55.7035 331.578 55.4286 331.259 55.2241 330.918L56.4258 330.074C56.5621 330.253 56.7347 330.457 56.9435 330.688C57.1523 330.922 57.4379 331.124 57.8001 331.295C58.1665 331.469 58.646 331.557 59.2383 331.557C60.0309 331.557 60.685 331.365 61.2006 330.982C61.7163 330.598 61.9741 329.997 61.9741 329.179V327.185H61.8462C61.7354 327.364 61.5778 327.585 61.3732 327.849C61.1729 328.109 60.8832 328.342 60.5039 328.546C60.1289 328.746 59.6218 328.847 58.9826 328.847C58.19 328.847 57.4783 328.659 56.8477 328.284C56.2212 327.909 55.7248 327.364 55.3583 326.648C54.9961 325.932 54.815 325.062 54.815 324.04C54.815 323.034 54.9918 322.158 55.3455 321.413C55.6992 320.663 56.1914 320.083 56.8221 319.674C57.4528 319.261 58.1815 319.054 59.0082 319.054C59.6474 319.054 60.1545 319.161 60.5295 319.374C60.9087 319.582 61.1985 319.821 61.3988 320.089C61.6033 320.354 61.761 320.571 61.8718 320.741H62.0252V319.182H63.4826V329.281C63.4826 330.125 63.2908 330.811 62.9073 331.339C62.5281 331.872 62.0167 332.262 61.3732 332.509C60.734 332.761 60.0224 332.886 59.2383 332.886ZM59.1871 327.491C59.7923 327.491 60.3036 327.353 60.7212 327.076C61.1388 326.799 61.4563 326.401 61.6737 325.881C61.891 325.361 61.9996 324.739 61.9996 324.014C61.9996 323.307 61.8931 322.683 61.68 322.141C61.467 321.6 61.1516 321.176 60.734 320.869C60.3164 320.562 59.8008 320.409 59.1871 320.409C58.5479 320.409 58.0153 320.571 57.5891 320.895C57.1673 321.219 56.8498 321.653 56.6367 322.199C56.4279 322.744 56.3235 323.349 56.3235 324.014C56.3235 324.696 56.43 325.299 56.6431 325.823C56.8604 326.343 57.18 326.752 57.6019 327.05C58.0281 327.344 58.5565 327.491 59.1871 327.491ZM72.4315 324.986V319.182H73.94V329H72.4315V327.338H72.3292C72.0991 327.837 71.7411 328.261 71.2553 328.61C70.7695 328.955 70.1559 329.128 69.4144 329.128C68.8008 329.128 68.2553 328.994 67.7781 328.725C67.3008 328.452 66.9258 328.043 66.6531 327.498C66.3803 326.948 66.244 326.256 66.244 325.42V319.182H67.7525V325.318C67.7525 326.034 67.9528 326.605 68.3533 327.031C68.7582 327.457 69.2738 327.67 69.9002 327.67C70.2752 327.67 70.6566 327.575 71.0444 327.383C71.4364 327.191 71.7646 326.897 72.0288 326.501C72.2972 326.104 72.4315 325.599 72.4315 324.986ZM80.8194 329.205C79.8734 329.205 79.0574 328.996 78.3713 328.578C77.6895 328.156 77.1632 327.568 76.7924 326.814C76.426 326.055 76.2427 325.173 76.2427 324.168C76.2427 323.162 76.426 322.276 76.7924 321.509C77.1632 320.737 77.6788 320.136 78.3393 319.706C79.0041 319.271 79.7797 319.054 80.666 319.054C81.1774 319.054 81.6824 319.139 82.1809 319.31C82.6795 319.48 83.1333 319.757 83.5424 320.141C83.9515 320.52 84.2775 321.023 84.5204 321.649C84.7633 322.276 84.8848 323.047 84.8848 323.963V324.602H77.3166V323.298H83.3507C83.3507 322.744 83.2399 322.25 83.0183 321.815C82.801 321.381 82.4899 321.038 82.0851 320.786C81.6845 320.535 81.2115 320.409 80.666 320.409C80.0652 320.409 79.5453 320.558 79.1064 320.857C78.6717 321.151 78.3372 321.534 78.1028 322.007C77.8684 322.48 77.7512 322.987 77.7512 323.528V324.398C77.7512 325.139 77.8791 325.768 78.1348 326.283C78.3947 326.795 78.7548 327.185 79.215 327.453C79.6752 327.717 80.2101 327.849 80.8194 327.849C81.2157 327.849 81.5737 327.794 81.8933 327.683C82.2172 327.568 82.4963 327.398 82.7306 327.172C82.965 326.942 83.1461 326.656 83.274 326.315L84.7314 326.724C84.5779 327.219 84.3201 327.653 83.9579 328.028C83.5957 328.399 83.1483 328.689 82.6156 328.898C82.0829 329.102 81.4842 329.205 80.8194 329.205ZM88.688 315.909V329H87.1795V315.909H88.688Z" fill="black"/>
<path d="M36.5341 147C36.3935 146.57 36.2081 146.184 35.978 145.843C35.7521 145.498 35.4815 145.204 35.1662 144.961C34.8551 144.718 34.5014 144.533 34.1051 144.405C33.7088 144.277 33.2741 144.213 32.8011 144.213C32.0256 144.213 31.3203 144.413 30.6854 144.814C30.0504 145.214 29.5455 145.805 29.1705 146.585C28.7955 147.364 28.608 148.321 28.608 149.455C28.608 150.588 28.7976 151.545 29.1768 152.325C29.5561 153.104 30.0696 153.695 30.7173 154.095C31.3651 154.496 32.0938 154.696 32.9034 154.696C33.6534 154.696 34.3139 154.536 34.8849 154.217C35.4602 153.893 35.9077 153.437 36.2273 152.849C36.5511 152.256 36.7131 151.56 36.7131 150.759L37.1989 150.861H33.2614V149.455H38.2472V150.861C38.2472 151.939 38.017 152.876 37.5568 153.673C37.1009 154.47 36.4702 155.088 35.6648 155.527C34.8636 155.962 33.9432 156.179 32.9034 156.179C31.7443 156.179 30.7259 155.906 29.848 155.361C28.9744 154.815 28.2926 154.04 27.8026 153.034C27.3168 152.028 27.0739 150.835 27.0739 149.455C27.0739 148.419 27.2124 147.488 27.4893 146.661C27.7706 145.83 28.1669 145.123 28.6783 144.539C29.1896 143.955 29.7947 143.508 30.4936 143.197C31.1925 142.886 31.9616 142.73 32.8011 142.73C33.4915 142.73 34.1349 142.835 34.7315 143.043C35.3324 143.248 35.8672 143.54 36.3359 143.919C36.8089 144.294 37.2031 144.744 37.5185 145.268C37.8338 145.788 38.0511 146.365 38.1705 147H36.5341ZM43.6468 156.23C43.0247 156.23 42.46 156.113 41.9529 155.879C41.4458 155.64 41.0431 155.297 40.7449 154.849C40.4466 154.398 40.2974 153.852 40.2974 153.213C40.2974 152.651 40.4082 152.195 40.6298 151.845C40.8514 151.491 41.1475 151.214 41.5183 151.014C41.889 150.814 42.2981 150.665 42.7456 150.567C43.1973 150.464 43.6511 150.384 44.1071 150.324C44.7037 150.247 45.1873 150.19 45.5581 150.151C45.9331 150.109 46.2058 150.038 46.3762 149.94C46.551 149.842 46.6383 149.672 46.6383 149.429V149.378C46.6383 148.747 46.4657 148.257 46.1206 147.908C45.7797 147.558 45.2619 147.384 44.5673 147.384C43.8471 147.384 43.2825 147.541 42.8734 147.857C42.4643 148.172 42.1767 148.509 42.0105 148.866L40.5787 148.355C40.8343 147.759 41.1752 147.294 41.6014 146.962C42.0318 146.625 42.5005 146.391 43.0076 146.259C43.519 146.122 44.0218 146.054 44.5162 146.054C44.8315 146.054 45.1937 146.092 45.6028 146.169C46.0162 146.241 46.4146 146.393 46.7981 146.623C47.1859 146.853 47.5076 147.2 47.7633 147.665C48.019 148.129 48.1468 148.751 48.1468 149.531V156H46.6383V154.67H46.5616C46.4593 154.884 46.2889 155.112 46.0502 155.354C45.8116 155.597 45.4941 155.804 45.0978 155.974C44.7015 156.145 44.2179 156.23 43.6468 156.23ZM43.877 154.875C44.4735 154.875 44.9764 154.758 45.3855 154.523C45.7988 154.289 46.1099 153.987 46.3187 153.616C46.5318 153.245 46.6383 152.855 46.6383 152.446V151.065C46.5744 151.142 46.4338 151.212 46.2164 151.276C46.0034 151.336 45.7562 151.389 45.475 151.436C45.198 151.479 44.9274 151.517 44.6632 151.551C44.4032 151.581 44.1923 151.607 44.0304 151.628C43.6383 151.679 43.2718 151.762 42.9309 151.877C42.5943 151.988 42.3216 152.156 42.1127 152.382C41.9082 152.604 41.8059 152.906 41.8059 153.29C41.8059 153.814 41.9998 154.21 42.3876 154.479C42.7797 154.743 43.2761 154.875 43.877 154.875ZM43.9281 144.852L45.4877 141.886H47.252L45.2576 144.852H43.9281ZM57.8548 148.381L56.4996 148.764C56.4144 148.538 56.2887 148.319 56.1225 148.106C55.9606 147.888 55.739 147.71 55.4577 147.569C55.1765 147.428 54.8164 147.358 54.3775 147.358C53.7766 147.358 53.2759 147.496 52.8754 147.773C52.479 148.046 52.2809 148.393 52.2809 148.815C52.2809 149.19 52.4173 149.487 52.69 149.704C52.9627 149.921 53.3888 150.102 53.9684 150.247L55.4258 150.605C56.3036 150.818 56.9577 151.144 57.3881 151.583C57.8185 152.018 58.0337 152.578 58.0337 153.264C58.0337 153.827 57.8718 154.33 57.5479 154.773C57.2283 155.216 56.7809 155.565 56.2056 155.821C55.6303 156.077 54.9613 156.205 54.1985 156.205C53.1971 156.205 52.3683 155.987 51.712 155.553C51.0558 155.118 50.6403 154.483 50.4656 153.648L51.8974 153.29C52.0337 153.818 52.2915 154.214 52.6708 154.479C53.0543 154.743 53.555 154.875 54.1729 154.875C54.8761 154.875 55.4343 154.726 55.8477 154.428C56.2653 154.125 56.4741 153.763 56.4741 153.341C56.4741 153 56.3548 152.714 56.1161 152.484C55.8775 152.25 55.511 152.075 55.0167 151.96L53.3803 151.577C52.4812 151.364 51.8207 151.033 51.3988 150.586C50.9812 150.134 50.7724 149.57 50.7724 148.892C50.7724 148.338 50.9279 147.848 51.239 147.422C51.5543 146.996 51.9826 146.661 52.5238 146.418C53.0692 146.175 53.6871 146.054 54.3775 146.054C55.3491 146.054 56.1119 146.267 56.6658 146.693C57.2241 147.119 57.6204 147.682 57.8548 148.381Z" fill="black"/>
<path d="M29.1222 89H27.4602L32.267 75.9091H33.9034L38.7102 89H37.0483L33.1364 77.9801H33.0341L29.1222 89ZM29.7358 83.8864H36.4347V85.2926H29.7358V83.8864ZM32.3949 74.5795L33.9545 71.6136H35.7188L33.7244 74.5795H32.3949ZM44.5078 92.8864C43.7791 92.8864 43.1527 92.7926 42.6286 92.6051C42.1044 92.4219 41.6676 92.179 41.3182 91.8764C40.973 91.5781 40.6982 91.2585 40.4936 90.9176L41.6953 90.0739C41.8317 90.2528 42.0043 90.4574 42.2131 90.6875C42.4219 90.9219 42.7074 91.1243 43.0696 91.2947C43.4361 91.4695 43.9155 91.5568 44.5078 91.5568C45.3004 91.5568 45.9545 91.3651 46.4702 90.9815C46.9858 90.598 47.2436 89.9972 47.2436 89.179V87.1847H47.1158C47.005 87.3636 46.8473 87.5852 46.6428 87.8494C46.4425 88.1094 46.1527 88.3416 45.7734 88.5462C45.3984 88.7464 44.8913 88.8466 44.2521 88.8466C43.4595 88.8466 42.7479 88.6591 42.1172 88.2841C41.4908 87.9091 40.9943 87.3636 40.6278 86.6477C40.2656 85.9318 40.0845 85.0625 40.0845 84.0398C40.0845 83.0341 40.2614 82.1584 40.6151 81.4126C40.9688 80.6626 41.4609 80.0831 42.0916 79.674C42.7223 79.2607 43.451 79.054 44.2777 79.054C44.9169 79.054 45.424 79.1605 45.799 79.3736C46.1783 79.5824 46.468 79.821 46.6683 80.0895C46.8729 80.3537 47.0305 80.571 47.1413 80.7415H47.2947V79.1818H48.7521V89.2812C48.7521 90.125 48.5604 90.8111 48.1768 91.3395C47.7976 91.8722 47.2862 92.2621 46.6428 92.5092C46.0036 92.7607 45.2919 92.8864 44.5078 92.8864ZM44.4567 87.4915C45.0618 87.4915 45.5732 87.353 45.9908 87.076C46.4084 86.799 46.7259 86.4006 46.9432 85.8807C47.1605 85.3608 47.2692 84.7386 47.2692 84.0142C47.2692 83.3068 47.1626 82.6825 46.9496 82.1413C46.7365 81.6001 46.4212 81.1761 46.0036 80.8693C45.5859 80.5625 45.0703 80.4091 44.4567 80.4091C43.8175 80.4091 43.2848 80.571 42.8587 80.8949C42.4368 81.2187 42.1193 81.6534 41.9062 82.1989C41.6974 82.7443 41.593 83.3494 41.593 84.0142C41.593 84.696 41.6996 85.299 41.9126 85.8232C42.13 86.343 42.4496 86.7521 42.8714 87.0504C43.2976 87.3445 43.826 87.4915 44.4567 87.4915ZM57.701 84.9858V79.1818H59.2095V89H57.701V87.3381H57.5987C57.3686 87.8366 57.0107 88.2607 56.5249 88.6101C56.0391 88.9553 55.4254 89.1278 54.6839 89.1278C54.0703 89.1278 53.5249 88.9936 53.0476 88.7251C52.5703 88.4524 52.1953 88.0433 51.9226 87.4979C51.6499 86.9482 51.5135 86.2557 51.5135 85.4205V79.1818H53.022V85.3182C53.022 86.0341 53.2223 86.6051 53.6229 87.0312C54.0277 87.4574 54.5433 87.6705 55.1697 87.6705C55.5447 87.6705 55.9261 87.5746 56.3139 87.3828C56.706 87.1911 57.0341 86.897 57.2983 86.5007C57.5668 86.1044 57.701 85.5994 57.701 84.9858ZM64.8617 89.2301C64.2395 89.2301 63.6749 89.1129 63.1678 88.8786C62.6607 88.6399 62.258 88.2969 61.9597 87.8494C61.6614 87.3977 61.5123 86.8523 61.5123 86.2131C61.5123 85.6506 61.623 85.1946 61.8446 84.8452C62.0662 84.4915 62.3624 84.2145 62.7331 84.0142C63.1039 83.8139 63.513 83.6648 63.9604 83.5668C64.4121 83.4645 64.8659 83.3835 65.3219 83.3239C65.9185 83.2472 66.4022 83.1896 66.7729 83.1513C67.1479 83.1087 67.4206 83.0384 67.5911 82.9403C67.7658 82.8423 67.8532 82.6719 67.8532 82.429V82.3778C67.8532 81.7472 67.6806 81.2571 67.3354 80.9077C66.9945 80.5582 66.4767 80.3835 65.7821 80.3835C65.062 80.3835 64.4973 80.5412 64.0882 80.8565C63.6792 81.1719 63.3915 81.5085 63.2253 81.8665L61.7935 81.3551C62.0492 80.7585 62.3901 80.294 62.8162 79.9616C63.2466 79.625 63.7154 79.3906 64.2225 79.2585C64.7338 79.1222 65.2367 79.054 65.731 79.054C66.0463 79.054 66.4086 79.0923 66.8176 79.169C67.231 79.2415 67.6294 79.3928 68.013 79.6229C68.4007 79.853 68.7225 80.2003 68.9782 80.6648C69.2338 81.1293 69.3617 81.7514 69.3617 82.5312V89H67.8532V87.6705H67.7765C67.6742 87.8835 67.5037 88.1115 67.2651 88.3544C67.0265 88.5973 66.709 88.804 66.3127 88.9744C65.9164 89.1449 65.4327 89.2301 64.8617 89.2301ZM65.0918 87.875C65.6884 87.875 66.1912 87.7578 66.6003 87.5234C67.0137 87.2891 67.3248 86.9865 67.5336 86.6158C67.7466 86.245 67.8532 85.8551 67.8532 85.446V84.0653C67.7892 84.142 67.6486 84.2124 67.4313 84.2763C67.2182 84.3359 66.9711 84.3892 66.6898 84.4361C66.4128 84.4787 66.1422 84.517 65.878 84.5511C65.6181 84.581 65.4071 84.6065 65.2452 84.6278C64.8532 84.679 64.4867 84.7621 64.1458 84.8771C63.8091 84.9879 63.5364 85.1562 63.3276 85.3821C63.123 85.6037 63.0208 85.9062 63.0208 86.2898C63.0208 86.8139 63.2147 87.2102 63.6025 87.4787C63.9945 87.7429 64.4909 87.875 65.0918 87.875ZM74.3651 87.2102L74.2628 87.9006C74.1903 88.3864 74.0795 88.9062 73.9304 89.4602C73.7855 90.0142 73.6342 90.5362 73.4766 91.0263C73.3189 91.5163 73.1889 91.9063 73.0866 92.196H71.9361C71.9915 91.9233 72.0639 91.5632 72.1534 91.1158C72.2429 90.6683 72.3324 90.1676 72.4219 89.6136C72.5156 89.0639 72.5923 88.5014 72.652 87.9261L72.7287 87.2102H74.3651ZM82.427 89V75.9091H84.0123V87.5938H90.0975V89H82.427ZM98.535 84.9858V79.1818H100.044V89H98.535V87.3381H98.4327C98.2026 87.8366 97.8446 88.2607 97.3588 88.6101C96.873 88.9553 96.2594 89.1278 95.5179 89.1278C94.9043 89.1278 94.3588 88.9936 93.8816 88.7251C93.4043 88.4524 93.0293 88.0433 92.7566 87.4979C92.4838 86.9482 92.3475 86.2557 92.3475 85.4205V79.1818H93.856V85.3182C93.856 86.0341 94.0563 86.6051 94.4569 87.0312C94.8617 87.4574 95.3773 87.6705 96.0037 87.6705C96.3787 87.6705 96.7601 87.5746 97.1479 87.3828C97.54 87.1911 97.8681 86.897 98.1323 86.5007C98.4007 86.1044 98.535 85.5994 98.535 84.9858ZM102.525 89V87.8494L108.099 80.6903V80.5881H102.704V79.1818H110.042V80.3835L104.622 87.4915V87.5938H110.221V89H102.525ZM121.724 89.2045C120.778 89.2045 119.962 88.9957 119.276 88.5781C118.594 88.1562 118.067 87.5682 117.697 86.8139C117.33 86.0554 117.147 85.1733 117.147 84.1676C117.147 83.1619 117.33 82.2756 117.697 81.5085C118.067 80.7372 118.583 80.1364 119.244 79.706C119.908 79.2713 120.684 79.054 121.57 79.054C122.082 79.054 122.587 79.1392 123.085 79.3097C123.584 79.4801 124.038 79.7571 124.447 80.1406C124.856 80.5199 125.182 81.0227 125.425 81.6491C125.668 82.2756 125.789 83.0469 125.789 83.9631V84.6023H118.221V83.2983H124.255C124.255 82.7443 124.144 82.25 123.923 81.8153C123.705 81.3807 123.394 81.0376 122.989 80.7862C122.589 80.5348 122.116 80.4091 121.57 80.4091C120.969 80.4091 120.45 80.5582 120.011 80.8565C119.576 81.1506 119.241 81.5341 119.007 82.0071C118.773 82.4801 118.656 82.9872 118.656 83.5284V84.3977C118.656 85.1392 118.783 85.7678 119.039 86.2834C119.299 86.7947 119.659 87.1847 120.119 87.4531C120.58 87.7173 121.114 87.8494 121.724 87.8494C122.12 87.8494 122.478 87.794 122.798 87.6832C123.121 87.5682 123.401 87.3977 123.635 87.1719C123.869 86.9418 124.05 86.6562 124.178 86.3153L125.636 86.7244C125.482 87.2188 125.224 87.6534 124.862 88.0284C124.5 88.3991 124.053 88.6889 123.52 88.8977C122.987 89.1023 122.388 89.2045 121.724 89.2045ZM134.936 75.9091V89H133.351V75.9091H134.936ZM139.419 83.0938V89H137.91V79.1818H139.367V80.7159H139.495C139.725 80.2173 140.075 79.8168 140.544 79.5142C141.012 79.2074 141.617 79.054 142.359 79.054C143.024 79.054 143.605 79.1903 144.104 79.4631C144.602 79.7315 144.99 80.1406 145.267 80.6903C145.544 81.2358 145.683 81.9261 145.683 82.7614V89H144.174V82.8636C144.174 82.0923 143.974 81.4915 143.573 81.0611C143.173 80.6264 142.623 80.4091 141.924 80.4091C141.443 80.4091 141.012 80.5135 140.633 80.7223C140.258 80.9311 139.962 81.2358 139.744 81.6364C139.527 82.0369 139.419 82.5227 139.419 83.0938ZM152.709 79.1818V80.4602H147.621V79.1818H152.709ZM149.104 76.8295H150.613V86.1875C150.613 86.6136 150.674 86.9332 150.798 87.1463C150.926 87.3551 151.088 87.4957 151.284 87.5682C151.484 87.6364 151.695 87.6705 151.917 87.6705C152.083 87.6705 152.219 87.6619 152.326 87.6449C152.432 87.6236 152.517 87.6065 152.581 87.5938L152.888 88.9489C152.786 88.9872 152.643 89.0256 152.46 89.0639C152.277 89.1065 152.044 89.1278 151.763 89.1278C151.337 89.1278 150.919 89.0362 150.51 88.853C150.105 88.6697 149.769 88.3906 149.5 88.0156C149.236 87.6406 149.104 87.1676 149.104 86.5966V76.8295ZM158.989 89.2045C158.043 89.2045 157.227 88.9957 156.541 88.5781C155.859 88.1562 155.333 87.5682 154.962 86.8139C154.596 86.0554 154.413 85.1733 154.413 84.1676C154.413 83.1619 154.596 82.2756 154.962 81.5085C155.333 80.7372 155.849 80.1364 156.509 79.706C157.174 79.2713 157.95 79.054 158.836 79.054C159.347 79.054 159.852 79.1392 160.351 79.3097C160.849 79.4801 161.303 79.7571 161.712 80.1406C162.121 80.5199 162.447 81.0227 162.69 81.6491C162.933 82.2756 163.055 83.0469 163.055 83.9631V84.6023H155.487V83.2983H161.521C161.521 82.7443 161.41 82.25 161.188 81.8153C160.971 81.3807 160.66 81.0376 160.255 80.7862C159.854 80.5348 159.381 80.4091 158.836 80.4091C158.235 80.4091 157.715 80.5582 157.276 80.8565C156.842 81.1506 156.507 81.5341 156.273 82.0071C156.038 82.4801 155.921 82.9872 155.921 83.5284V84.3977C155.921 85.1392 156.049 85.7678 156.305 86.2834C156.565 86.7947 156.925 87.1847 157.385 87.4531C157.845 87.7173 158.38 87.8494 158.989 87.8494C159.386 87.8494 159.744 87.794 160.063 87.6832C160.387 87.5682 160.666 87.3977 160.901 87.1719C161.135 86.9418 161.316 86.6562 161.444 86.3153L162.901 86.7244C162.748 87.2188 162.49 87.6534 162.128 88.0284C161.766 88.3991 161.318 88.6889 160.786 88.8977C160.253 89.1023 159.654 89.2045 158.989 89.2045ZM165.349 89V79.1818H166.807V80.6648H166.909C167.088 80.179 167.412 79.7848 167.881 79.4822C168.349 79.1797 168.878 79.0284 169.466 79.0284C169.577 79.0284 169.715 79.0305 169.881 79.0348C170.048 79.0391 170.173 79.0455 170.259 79.054V80.5881C170.207 80.5753 170.09 80.5561 169.907 80.5305C169.728 80.5007 169.538 80.4858 169.338 80.4858C168.861 80.4858 168.435 80.5859 168.06 80.7862C167.689 80.9822 167.395 81.255 167.178 81.6044C166.964 81.9496 166.858 82.3437 166.858 82.7869V89H165.349ZM173.555 83.0938V89H172.047V79.1818H173.504V80.7159H173.632C173.862 80.2173 174.211 79.8168 174.68 79.5142C175.149 79.2074 175.754 79.054 176.496 79.054C177.16 79.054 177.742 79.1903 178.241 79.4631C178.739 79.7315 179.127 80.1406 179.404 80.6903C179.681 81.2358 179.819 81.9261 179.819 82.7614V89H178.311V82.8636C178.311 82.0923 178.111 81.4915 177.71 81.0611C177.309 80.6264 176.76 80.4091 176.061 80.4091C175.579 80.4091 175.149 80.5135 174.77 80.7223C174.395 80.9311 174.099 81.2358 173.881 81.6364C173.664 82.0369 173.555 82.5227 173.555 83.0938ZM186.692 89.2045C185.746 89.2045 184.93 88.9957 184.244 88.5781C183.562 88.1562 183.036 87.5682 182.665 86.8139C182.299 86.0554 182.116 85.1733 182.116 84.1676C182.116 83.1619 182.299 82.2756 182.665 81.5085C183.036 80.7372 183.552 80.1364 184.212 79.706C184.877 79.2713 185.653 79.054 186.539 79.054C187.05 79.054 187.555 79.1392 188.054 79.3097C188.553 79.4801 189.006 79.7571 189.415 80.1406C189.825 80.5199 190.151 81.0227 190.393 81.6491C190.636 82.2756 190.758 83.0469 190.758 83.9631V84.6023H183.19V83.2983H189.224C189.224 82.7443 189.113 82.25 188.891 81.8153C188.674 81.3807 188.363 81.0376 187.958 80.7862C187.558 80.5348 187.085 80.4091 186.539 80.4091C185.938 80.4091 185.418 80.5582 184.979 80.8565C184.545 81.1506 184.21 81.5341 183.976 82.0071C183.741 82.4801 183.624 82.9872 183.624 83.5284V84.3977C183.624 85.1392 183.752 85.7678 184.008 86.2834C184.268 86.7947 184.628 87.1847 185.088 87.4531C185.548 87.7173 186.083 87.8494 186.692 87.8494C187.089 87.8494 187.447 87.794 187.766 87.6832C188.09 87.5682 188.369 87.3977 188.604 87.1719C188.838 86.9418 189.019 86.6562 189.147 86.3153L190.604 86.7244C190.451 87.2188 190.193 87.6534 189.831 88.0284C189.469 88.3991 189.021 88.6889 188.489 88.8977C187.956 89.1023 187.357 89.2045 186.692 89.2045ZM197.322 79.1818V80.4602H192.234V79.1818H197.322ZM193.717 76.8295H195.226V86.1875C195.226 86.6136 195.288 86.9332 195.411 87.1463C195.539 87.3551 195.701 87.4957 195.897 87.5682C196.097 87.6364 196.308 87.6705 196.53 87.6705C196.696 87.6705 196.832 87.6619 196.939 87.6449C197.045 87.6236 197.131 87.6065 197.195 87.5938L197.501 88.9489C197.399 88.9872 197.256 89.0256 197.073 89.0639C196.89 89.1065 196.658 89.1278 196.376 89.1278C195.95 89.1278 195.533 89.0362 195.124 88.853C194.719 88.6697 194.382 88.3906 194.114 88.0156C193.849 87.6406 193.717 87.1676 193.717 86.5966V76.8295Z" fill="black"/>
<path d="M31.25 42H26.7614V27.4545H31.4489C32.8598 27.4545 34.0672 27.7457 35.071 28.3281C36.0748 28.9058 36.8442 29.7367 37.3793 30.821C37.9143 31.9006 38.1818 33.1932 38.1818 34.6989C38.1818 36.214 37.9119 37.5185 37.3722 38.6122C36.8324 39.7012 36.0464 40.5393 35.0142 41.1264C33.982 41.7088 32.7273 42 31.25 42ZM28.5227 40.4375H31.1364C32.339 40.4375 33.3357 40.2055 34.1264 39.7415C34.9171 39.2775 35.5066 38.617 35.8949 37.7599C36.2831 36.9029 36.4773 35.8826 36.4773 34.6989C36.4773 33.5246 36.2855 32.5137 35.902 31.6662C35.5185 30.8139 34.9455 30.1605 34.1832 29.706C33.4209 29.2467 32.4716 29.017 31.3352 29.017H28.5227V40.4375ZM45.483 42.2273C44.4318 42.2273 43.5251 41.9953 42.7628 41.5312C42.0052 41.0625 41.4205 40.4091 41.0085 39.571C40.6013 38.7282 40.3977 37.7481 40.3977 36.6307C40.3977 35.5133 40.6013 34.5284 41.0085 33.6761C41.4205 32.8191 41.9934 32.1515 42.7273 31.6733C43.4659 31.1903 44.3277 30.9489 45.3125 30.9489C45.8807 30.9489 46.4418 31.0436 46.9957 31.233C47.5497 31.4223 48.054 31.7301 48.5085 32.1562C48.9631 32.5777 49.3253 33.1364 49.5952 33.8324C49.8651 34.5284 50 35.3854 50 36.4034V37.1136H41.5909V35.6648H48.2955C48.2955 35.0492 48.1723 34.5 47.9261 34.017C47.6847 33.5341 47.339 33.1529 46.8892 32.8736C46.4441 32.5942 45.9186 32.4545 45.3125 32.4545C44.6449 32.4545 44.0672 32.6203 43.5795 32.9517C43.0966 33.2784 42.7249 33.7045 42.4645 34.2301C42.2041 34.7557 42.0739 35.3191 42.0739 35.9205V36.8864C42.0739 37.7102 42.2159 38.4086 42.5 38.9815C42.7888 39.5497 43.1889 39.983 43.7003 40.2812C44.2116 40.5748 44.8059 40.7216 45.483 40.7216C45.9233 40.7216 46.321 40.66 46.6761 40.5369C47.036 40.4091 47.3461 40.2197 47.6065 39.9688C47.867 39.7131 48.0682 39.3958 48.2102 39.017L49.8295 39.4716C49.6591 40.0208 49.3726 40.5038 48.9702 40.9205C48.5677 41.3324 48.0705 41.6544 47.4787 41.8864C46.8868 42.1136 46.2216 42.2273 45.483 42.2273ZM60.277 33.5341L58.7713 33.9602C58.6766 33.7093 58.5369 33.4654 58.3523 33.2287C58.1723 32.9872 57.9261 32.7884 57.6136 32.6321C57.3011 32.4759 56.901 32.3977 56.4134 32.3977C55.7457 32.3977 55.1894 32.5516 54.7443 32.8594C54.304 33.1624 54.0838 33.5483 54.0838 34.017C54.0838 34.4337 54.2353 34.7628 54.5384 35.0043C54.8414 35.2457 55.3149 35.447 55.9588 35.608L57.5781 36.0057C58.5535 36.2424 59.2803 36.6046 59.7585 37.0923C60.2367 37.5753 60.4759 38.1979 60.4759 38.9602C60.4759 39.5852 60.2959 40.1439 59.9361 40.6364C59.581 41.1288 59.0838 41.517 58.4446 41.8011C57.8054 42.0852 57.062 42.2273 56.2145 42.2273C55.1018 42.2273 54.1809 41.9858 53.4517 41.5028C52.7225 41.0199 52.2609 40.3144 52.0668 39.3864L53.6577 38.9886C53.8092 39.5758 54.0956 40.0161 54.517 40.3097C54.9432 40.6032 55.4995 40.75 56.1861 40.75C56.9673 40.75 57.5876 40.5843 58.0469 40.2528C58.5109 39.9167 58.7429 39.5142 58.7429 39.0455C58.7429 38.6667 58.6103 38.3494 58.3452 38.0938C58.08 37.8333 57.6728 37.6392 57.1236 37.5114L55.3054 37.0852C54.3063 36.8485 53.5724 36.4815 53.1037 35.9844C52.6397 35.4825 52.4077 34.8551 52.4077 34.1023C52.4077 33.4867 52.5805 32.9422 52.9261 32.4688C53.2765 31.9953 53.7524 31.6236 54.3537 31.3537C54.9598 31.0838 55.6463 30.9489 56.4134 30.9489C57.4929 30.9489 58.3404 31.1856 58.956 31.6591C59.5762 32.1326 60.0166 32.7576 60.277 33.5341ZM62.9989 46.0909V31.0909H64.6183V32.8239H64.8171C64.9402 32.6345 65.1107 32.393 65.3285 32.0994C65.551 31.8011 65.8683 31.536 66.2802 31.304C66.6969 31.0672 67.2603 30.9489 67.9705 30.9489C68.8891 30.9489 69.6987 31.1785 70.3995 31.6378C71.1003 32.0971 71.6471 32.7481 72.0401 33.5909C72.4331 34.4337 72.6296 35.428 72.6296 36.5739C72.6296 37.7292 72.4331 38.7306 72.0401 39.5781C71.6471 40.4209 71.1026 41.0743 70.4066 41.5384C69.7106 41.9976 68.908 42.2273 67.9989 42.2273C67.2982 42.2273 66.7371 42.1113 66.3157 41.8793C65.8943 41.6425 65.57 41.375 65.3427 41.0767C65.1154 40.7737 64.9402 40.5227 64.8171 40.3239H64.6751V46.0909H62.9989ZM64.6467 36.5455C64.6467 37.3693 64.7674 38.0961 65.0089 38.7259C65.2504 39.3509 65.6031 39.8409 66.0671 40.196C66.5311 40.5464 67.0993 40.7216 67.7717 40.7216C68.4724 40.7216 69.0572 40.5369 69.5259 40.1676C69.9994 39.7936 70.3545 39.2917 70.5913 38.6619C70.8327 38.0275 70.9535 37.322 70.9535 36.5455C70.9535 35.7784 70.8351 35.0871 70.5984 34.4716C70.3664 33.8513 70.0136 33.3613 69.5401 33.0014C69.0714 32.6368 68.4819 32.4545 67.7717 32.4545C67.0898 32.4545 66.5169 32.6274 66.0529 32.973C65.5889 33.3139 65.2385 33.7921 65.0018 34.4077C64.765 35.0185 64.6467 35.7311 64.6467 36.5455ZM79.7603 42.2273C78.7092 42.2273 77.8024 41.9953 77.0401 41.5312C76.2826 41.0625 75.6978 40.4091 75.2859 39.571C74.8787 38.7282 74.6751 37.7481 74.6751 36.6307C74.6751 35.5133 74.8787 34.5284 75.2859 33.6761C75.6978 32.8191 76.2707 32.1515 77.0046 31.6733C77.7433 31.1903 78.605 30.9489 79.5898 30.9489C80.158 30.9489 80.7191 31.0436 81.2731 31.233C81.8271 31.4223 82.3313 31.7301 82.7859 32.1562C83.2404 32.5777 83.6026 33.1364 83.8725 33.8324C84.1424 34.5284 84.2773 35.3854 84.2773 36.4034V37.1136H75.8683V35.6648H82.5728C82.5728 35.0492 82.4497 34.5 82.2035 34.017C81.962 33.5341 81.6164 33.1529 81.1665 32.8736C80.7215 32.5942 80.1959 32.4545 79.5898 32.4545C78.9222 32.4545 78.3446 32.6203 77.8569 32.9517C77.3739 33.2784 77.0022 33.7045 76.7418 34.2301C76.4814 34.7557 76.3512 35.3191 76.3512 35.9205V36.8864C76.3512 37.7102 76.4933 38.4086 76.7773 38.9815C77.0662 39.5497 77.4663 39.983 77.9776 40.2812C78.489 40.5748 79.0832 40.7216 79.7603 40.7216C80.2006 40.7216 80.5984 40.66 80.9535 40.5369C81.3133 40.4091 81.6235 40.2197 81.8839 39.9688C82.1443 39.7131 82.3455 39.3958 82.4876 39.017L84.1069 39.4716C83.9364 40.0208 83.65 40.5038 83.2475 40.9205C82.8451 41.3324 82.3479 41.6544 81.756 41.8864C81.1642 42.1136 80.4989 42.2273 79.7603 42.2273ZM94.5543 33.5341L93.0487 33.9602C92.954 33.7093 92.8143 33.4654 92.6296 33.2287C92.4497 32.9872 92.2035 32.7884 91.891 32.6321C91.5785 32.4759 91.1784 32.3977 90.6907 32.3977C90.0231 32.3977 89.4667 32.5516 89.0217 32.8594C88.5813 33.1624 88.3612 33.5483 88.3612 34.017C88.3612 34.4337 88.5127 34.7628 88.8157 35.0043C89.1187 35.2457 89.5922 35.447 90.2362 35.608L91.8555 36.0057C92.8308 36.2424 93.5576 36.6046 94.0359 37.0923C94.5141 37.5753 94.7532 38.1979 94.7532 38.9602C94.7532 39.5852 94.5733 40.1439 94.2134 40.6364C93.8583 41.1288 93.3612 41.517 92.7219 41.8011C92.0827 42.0852 91.3394 42.2273 90.4918 42.2273C89.3791 42.2273 88.4582 41.9858 87.729 41.5028C86.9999 41.0199 86.5382 40.3144 86.3441 39.3864L87.935 38.9886C88.0865 39.5758 88.373 40.0161 88.7944 40.3097C89.2205 40.6032 89.7769 40.75 90.4634 40.75C91.2447 40.75 91.8649 40.5843 92.3242 40.2528C92.7882 39.9167 93.0202 39.5142 93.0202 39.0455C93.0202 38.6667 92.8877 38.3494 92.6225 38.0938C92.3574 37.8333 91.9502 37.6392 91.4009 37.5114L89.5827 37.0852C88.5837 36.8485 87.8498 36.4815 87.381 35.9844C86.917 35.4825 86.685 34.8551 86.685 34.1023C86.685 33.4867 86.8578 32.9422 87.2035 32.4688C87.5539 31.9953 88.0297 31.6236 88.631 31.3537C89.2371 31.0838 89.9237 30.9489 90.6907 30.9489C91.7702 30.9489 92.6178 31.1856 93.2333 31.6591C93.8536 32.1326 94.2939 32.7576 94.5543 33.5341ZM100.487 42.2557C99.7952 42.2557 99.1679 42.1255 98.6044 41.8651C98.041 41.5999 97.5935 41.2188 97.2621 40.7216C96.9306 40.2197 96.7649 39.6136 96.7649 38.9034C96.7649 38.2784 96.888 37.7718 97.1342 37.3835C97.3804 36.9905 97.7095 36.6828 98.1214 36.4602C98.5334 36.2377 98.9879 36.072 99.4851 35.9631C99.987 35.8494 100.491 35.7595 100.998 35.6932C101.661 35.608 102.198 35.544 102.61 35.5014C103.027 35.4541 103.33 35.3759 103.519 35.267C103.713 35.1581 103.81 34.9687 103.81 34.6989V34.642C103.81 33.9413 103.619 33.3968 103.235 33.0085C102.856 32.6203 102.281 32.4261 101.509 32.4261C100.709 32.4261 100.082 32.6013 99.6271 32.9517C99.1726 33.3021 98.853 33.6761 98.6683 34.0739L97.0774 33.5057C97.3615 32.8428 97.7403 32.3267 98.2138 31.9574C98.692 31.5833 99.2128 31.3229 99.7763 31.1761C100.344 31.0246 100.903 30.9489 101.452 30.9489C101.803 30.9489 102.205 30.9915 102.66 31.0767C103.119 31.1572 103.562 31.3253 103.988 31.581C104.419 31.8366 104.776 32.2225 105.06 32.7386C105.344 33.2547 105.487 33.946 105.487 34.8125V42H103.81V40.5227H103.725C103.612 40.7595 103.422 41.0128 103.157 41.2827C102.892 41.5526 102.539 41.7822 102.099 41.9716C101.658 42.161 101.121 42.2557 100.487 42.2557ZM100.742 40.75C101.405 40.75 101.964 40.6198 102.418 40.3594C102.878 40.099 103.223 39.7628 103.455 39.3509C103.692 38.9389 103.81 38.5057 103.81 38.0511V36.517C103.739 36.6023 103.583 36.6804 103.342 36.7514C103.105 36.8177 102.83 36.8769 102.518 36.929C102.21 36.9763 101.909 37.0189 101.616 37.0568C101.327 37.09 101.093 37.1184 100.913 37.142C100.477 37.1989 100.07 37.2912 99.6911 37.419C99.317 37.5421 99.014 37.7292 98.782 37.9801C98.5547 38.2263 98.4411 38.5625 98.4411 38.9886C98.4411 39.571 98.6565 40.0114 99.0874 40.3097C99.523 40.6032 100.075 40.75 100.742 40.75ZM116.273 33.5341L114.767 33.9602C114.673 33.7093 114.533 33.4654 114.348 33.2287C114.168 32.9872 113.922 32.7884 113.61 32.6321C113.297 32.4759 112.897 32.3977 112.409 32.3977C111.742 32.3977 111.185 32.5516 110.74 32.8594C110.3 33.1624 110.08 33.5483 110.08 34.017C110.08 34.4337 110.231 34.7628 110.534 35.0043C110.837 35.2457 111.311 35.447 111.955 35.608L113.574 36.0057C114.55 36.2424 115.276 36.6046 115.755 37.0923C116.233 37.5753 116.472 38.1979 116.472 38.9602C116.472 39.5852 116.292 40.1439 115.932 40.6364C115.577 41.1288 115.08 41.517 114.441 41.8011C113.801 42.0852 113.058 42.2273 112.211 42.2273C111.098 42.2273 110.177 41.9858 109.448 41.5028C108.719 41.0199 108.257 40.3144 108.063 39.3864L109.654 38.9886C109.805 39.5758 110.092 40.0161 110.513 40.3097C110.939 40.6032 111.496 40.75 112.182 40.75C112.963 40.75 113.584 40.5843 114.043 40.2528C114.507 39.9167 114.739 39.5142 114.739 39.0455C114.739 38.6667 114.606 38.3494 114.341 38.0938C114.076 37.8333 113.669 37.6392 113.12 37.5114L111.301 37.0852C110.302 36.8485 109.569 36.4815 109.1 35.9844C108.636 35.4825 108.404 34.8551 108.404 34.1023C108.404 33.4867 108.577 32.9422 108.922 32.4688C109.273 31.9953 109.748 31.6236 110.35 31.3537C110.956 31.0838 111.642 30.9489 112.409 30.9489C113.489 30.9489 114.337 31.1856 114.952 31.6591C115.572 32.1326 116.013 32.7576 116.273 33.5341Z" fill="#797979"/>
</g>
<defs>
<clipPath id="clip0_127_120">
<rect width="803" height="500" fill="white"/>
</clipPath>
</defs>
</svg>
