<svg width="44" height="44" viewBox="0 0 44 44" fill="none" xmlns="http://www.w3.org/2000/svg">
<path d="M40.0627 7.85742H37.7232C37.7209 7.85742 37.7186 7.85835 37.7169 7.86001C37.7153 7.86167 37.7144 7.86392 37.7144 7.86626V37.7146C37.7144 38.5481 38.0455 39.3475 38.6349 39.9369C39.2243 40.5263 40.0237 40.8574 40.8572 40.8574C41.6908 40.8574 42.4901 40.5263 43.0795 39.9369C43.6689 39.3475 44.0001 38.5481 44.0001 37.7146V11.7948C44.0001 10.7506 43.5852 9.74907 42.8468 9.01066C42.1084 8.27225 41.1069 7.85742 40.0627 7.85742Z" fill="#E21826"/>
<path d="M34.5714 37.7143V3.92857C34.5714 3.41266 34.4698 2.90181 34.2724 2.42517C34.075 1.94854 33.7856 1.51545 33.4208 1.15065C33.056 0.78585 32.6229 0.496474 32.1463 0.299045C31.6696 0.101616 31.1588 0 30.6429 0H3.92857C2.88665 0 1.8874 0.413902 1.15065 1.15065C0.413902 1.8874 0 2.88665 0 3.92857V38.5C0 39.9587 0.579463 41.3576 1.61091 42.3891C2.64236 43.4205 4.04131 44 5.5 44H39.1728C39.1876 44.0001 39.2024 43.9973 39.2161 43.9917C39.2299 43.986 39.2424 43.9777 39.2529 43.9672C39.2634 43.9567 39.2718 43.9442 39.2774 43.9304C39.283 43.9167 39.2858 43.9019 39.2857 43.8871C39.2857 43.8624 39.2774 43.8384 39.2623 43.8188C39.2472 43.7993 39.2261 43.7853 39.2022 43.779C37.8729 43.4144 36.7 42.6236 35.8635 41.528C35.027 40.4325 34.5731 39.0927 34.5714 37.7143ZM6.28571 9.42857C6.28571 9.0118 6.45128 8.6121 6.74598 8.3174C7.04068 8.0227 7.44037 7.85714 7.85714 7.85714H14.1429C14.5596 7.85714 14.9593 8.0227 15.254 8.3174C15.5487 8.6121 15.7143 9.0118 15.7143 9.42857V15.7143C15.7143 16.1311 15.5487 16.5308 15.254 16.8255C14.9593 17.1202 14.5596 17.2857 14.1429 17.2857H7.85714C7.44037 17.2857 7.04068 17.1202 6.74598 16.8255C6.45128 16.5308 6.28571 16.1311 6.28571 15.7143V9.42857ZM26.7143 36.1429H7.90134C7.05571 36.1429 6.32991 35.4927 6.28768 34.6471C6.27744 34.4346 6.31045 34.2222 6.3847 34.0229C6.45895 33.8236 6.5729 33.6414 6.71965 33.4874C6.86639 33.3334 7.04287 33.2108 7.2384 33.127C7.43392 33.0432 7.64442 33 7.85714 33H26.6701C27.5157 33 28.2415 33.6502 28.2838 34.4958C28.294 34.7083 28.261 34.9206 28.1867 35.12C28.1125 35.3193 27.9985 35.5015 27.8518 35.6555C27.705 35.8095 27.5286 35.9321 27.333 36.0159C27.1375 36.0996 26.927 36.1428 26.7143 36.1429ZM26.7143 29.8571H7.90134C7.05571 29.8571 6.32991 29.207 6.28768 28.3613C6.27744 28.1489 6.31045 27.9365 6.3847 27.7372C6.45895 27.5379 6.5729 27.3557 6.71965 27.2017C6.86639 27.0477 7.04287 26.9251 7.2384 26.8413C7.43392 26.7575 7.64442 26.7143 7.85714 26.7143H26.6701C27.5157 26.7143 28.2415 27.3645 28.2838 28.2101C28.294 28.4226 28.261 28.6349 28.1867 28.8342C28.1125 29.0336 27.9985 29.2158 27.8518 29.3698C27.705 29.5238 27.5286 29.6464 27.333 29.7301C27.1375 29.8139 26.927 29.8571 26.7143 29.8571ZM26.7143 23.5714H7.90134C7.05571 23.5714 6.32991 22.9212 6.28768 22.0756C6.27744 21.8632 6.31045 21.6508 6.3847 21.4515C6.45895 21.2521 6.5729 21.07 6.71965 20.916C6.86639 20.762 7.04287 20.6394 7.2384 20.5556C7.43392 20.4718 7.64442 20.4286 7.85714 20.4286H26.6701C27.5157 20.4286 28.2415 21.0788 28.2838 21.9244C28.294 22.1368 28.261 22.3492 28.1867 22.5485C28.1125 22.7479 27.9985 22.9301 27.8518 23.0841C27.705 23.238 27.5286 23.3607 27.333 23.4444C27.1375 23.5282 26.927 23.5714 26.7143 23.5714ZM26.7143 17.2857H20.4728C19.6271 17.2857 18.9013 16.6355 18.8591 15.7899C18.8489 15.5774 18.8819 15.3651 18.9561 15.1658C19.0304 14.9664 19.1443 14.7842 19.2911 14.6302C19.4378 14.4762 19.6143 14.3536 19.8098 14.2699C20.0054 14.1861 20.2159 14.1429 20.4286 14.1429H26.6701C27.5157 14.1429 28.2415 14.793 28.2838 15.6387C28.294 15.8511 28.261 16.0635 28.1867 16.2628C28.1125 16.4621 27.9985 16.6443 27.8518 16.7983C27.705 16.9523 27.5286 17.0749 27.333 17.1587C27.1375 17.2425 26.927 17.2857 26.7143 17.2857ZM26.7143 11H20.4728C19.6271 11 18.9013 10.3498 18.8591 9.5042C18.8489 9.29173 18.8819 9.07939 18.9561 8.88005C19.0304 8.68071 19.1443 8.49852 19.2911 8.34452C19.4378 8.19053 19.6143 8.06792 19.8098 7.98415C20.0054 7.90037 20.2159 7.85716 20.4286 7.85714H26.6701C27.5157 7.85714 28.2415 8.50732 28.2838 9.35295C28.294 9.56542 28.261 9.77776 28.1867 9.9771C28.1125 10.1764 27.9985 10.3586 27.8518 10.5126C27.705 10.6666 27.5286 10.7892 27.333 10.873C27.1375 10.9568 26.927 11 26.7143 11Z" fill="#E21826"/>
</svg>
