<svg width="44" height="51" viewBox="0 0 44 51" fill="none" xmlns="http://www.w3.org/2000/svg">
<path d="M5.92308 50.7691H2.53846C1.86522 50.7691 1.21955 50.5017 0.743498 50.0256C0.267444 49.5496 0 48.9039 0 48.2307V32.9999C0 32.3266 0.267444 31.681 0.743498 31.2049C1.21955 30.7289 1.86522 30.4614 2.53846 30.4614H5.92308C6.59632 30.4614 7.24199 30.7289 7.71804 31.2049C8.19409 31.681 8.46154 32.3266 8.46154 32.9999V48.2307C8.46154 48.9039 8.19409 49.5496 7.71804 50.0256C7.24199 50.5017 6.59632 50.7691 5.92308 50.7691Z" fill="#E21826"/>
<path d="M29.6155 50.7692H26.2308C25.5576 50.7692 24.9119 50.5017 24.4359 50.0257C23.9598 49.5496 23.6924 48.9039 23.6924 48.2307V22.8461C23.6924 22.1728 23.9598 21.5272 24.4359 21.0511C24.9119 20.5751 25.5576 20.3076 26.2308 20.3076H29.6155C30.2887 20.3076 30.9344 20.5751 31.4104 21.0511C31.8865 21.5272 32.1539 22.1728 32.1539 22.8461V48.2307C32.1539 48.9039 31.8865 49.5496 31.4104 50.0257C30.9344 50.5017 30.2887 50.7692 29.6155 50.7692Z" fill="#E21826"/>
<path d="M41.4614 50.7691H38.0768C37.4035 50.7691 36.7579 50.5017 36.2818 50.0256C35.8058 49.5496 35.5383 48.9039 35.5383 48.2307V10.9999C35.5383 10.3266 35.8058 9.68098 36.2818 9.20492C36.7579 8.72887 37.4035 8.46143 38.0768 8.46143H41.4614C42.1346 8.46143 42.7803 8.72887 43.2564 9.20492C43.7324 9.68098 43.9999 10.3266 43.9999 10.9999V48.2307C43.9999 48.9039 43.7324 49.5496 43.2564 50.0256C42.7803 50.5017 42.1346 50.7691 41.4614 50.7691Z" fill="#E21826"/>
<path d="M17.7693 50.7692H14.3847C13.7114 50.7692 13.0657 50.5018 12.5897 50.0257C12.1136 49.5497 11.8462 48.904 11.8462 48.2308V2.53846C11.8462 1.86522 12.1136 1.21955 12.5897 0.743498C13.0657 0.267444 13.7114 0 14.3847 0H17.7693C18.4425 0 19.0882 0.267444 19.5642 0.743498C20.0403 1.21955 20.3077 1.86522 20.3077 2.53846V48.2308C20.3077 48.904 20.0403 49.5497 19.5642 50.0257C19.0882 50.5018 18.4425 50.7692 17.7693 50.7692Z" fill="#E21826"/>
</svg>
