<svg width="44" height="60" viewBox="0 0 44 60" fill="none" xmlns="http://www.w3.org/2000/svg">
<path d="M19.5556 59.3476V54.5229C7.41431 53.9162 0.0381944 48.4928 0 40.2716H11C11.2704 43.7609 14.6453 46.4249 19.5556 46.8952V33.9129L15.4657 32.9856C6.14625 31.1071 1.15958 26.4428 1.15958 19.4628C1.15958 11.235 7.95667 5.83938 19.5556 5.03395V0H24.4444V5.03395C36.2679 5.86852 42.625 11.3582 42.7778 19.076H31.7778C31.6617 15.8887 29.3593 13.328 24.4444 12.9823V25.1697L29.1531 26.1341C39.0515 28.0126 44 32.4557 44 39.7417C44 48.265 37.3175 53.7679 24.4444 54.4885V59.3476H19.5556ZM19.5556 24.3749V12.9823C15.3404 13.1836 12.3337 15.429 12.3337 18.6163C12.3337 21.5705 14.8378 23.5019 19.5556 24.3749ZM24.4444 34.7077V46.8952C30.2729 46.6912 33.0581 44.3888 33.0581 40.8319C33.0581 37.5758 30.2729 35.3834 24.4444 34.7077Z" fill="#E21826"/>
</svg>
