<svg width="1079" height="466" viewBox="0 0 1079 466" fill="none" xmlns="http://www.w3.org/2000/svg">
<g clip-path="url(#clip0_125_57)">
<rect width="1079" height="465.179" fill="white"/>
<path d="M50.5793 14.6665H47.4792V425.333H50.5793V14.6665Z" fill="#D1D1D1"/>
<path d="M385.386 14.6665H382.286V425.333H385.386V14.6665Z" fill="#D1D1D1"/>
<path d="M720.193 14.6665H717.093V425.333H720.193V14.6665Z" fill="#D1D1D1"/>
<path d="M1055 14.6665H1051.9V425.333H1055V14.6665Z" fill="#D1D1D1"/>
<path d="M1055 423.28H47.4792V425.333H1055V423.28Z" fill="#D1D1D1"/>
<path d="M1055 341.146H47.4792V343.2H1055V341.146Z" fill="#D1D1D1"/>
<path d="M1055 259.013H47.4792V261.067H1055V259.013Z" fill="#D1D1D1"/>
<path d="M1055 178.933H47.4792V180.987H1055V178.933Z" fill="#D1D1D1"/>
<path d="M1055 96.7998H47.4792V98.8531H1055V96.7998Z" fill="#D1D1D1"/>
<path d="M1055 14.6665H47.4792V16.7198H1055V14.6665Z" fill="#D1D1D1"/>
<path d="M1055 382.213H47.4792V384.266H1055V382.213Z" fill="#D1D1D1"/>
<path d="M1055 300.08H47.4792V302.133H1055V300.08Z" fill="#D1D1D1"/>
<path d="M1055 220H47.4792V222.053H1055V220Z" fill="#D1D1D1"/>
<path d="M1055 137.867H47.4792V139.92H1055V137.867Z" fill="#D1D1D1"/>
<path d="M1055 55.7332H47.4792V57.7865H1055V55.7332Z" fill="#D1D1D1"/>
<path d="M50.5793 14.6665H47.4792V425.333H50.5793V14.6665Z" fill="black"/>
<path d="M1055 423.28H47.4792V425.333H1055V423.28Z" fill="black"/>
<path d="M52.9998 422.905H463.5L510 374L568 422.905H614L665 221.04L718 422.905H770L819 374L842 364L879 342.784L872 422.905H924L1006 95.135" stroke="#D00000" stroke-width="1.57635"/>
<path d="M53.4453 441.535V442.56C53.4453 443.111 53.396 443.576 53.2975 443.955C53.199 444.333 53.0573 444.638 52.8726 444.869C52.6879 445.1 52.4647 445.268 52.203 445.372C51.9443 445.474 51.6518 445.525 51.3255 445.525C51.0669 445.525 50.8283 445.492 50.6097 445.428C50.3911 445.363 50.194 445.26 50.0185 445.118C49.8461 444.974 49.6983 444.786 49.5752 444.555C49.452 444.324 49.3581 444.044 49.2935 443.714C49.2288 443.385 49.1965 443 49.1965 442.56V441.535C49.1965 440.983 49.2458 440.522 49.3443 440.149C49.4459 439.777 49.589 439.478 49.7738 439.253C49.9585 439.025 50.1802 438.862 50.4388 438.764C50.7005 438.665 50.993 438.616 51.3163 438.616C51.578 438.616 51.8181 438.648 52.0367 438.713C52.2584 438.774 52.4554 438.874 52.6278 439.013C52.8002 439.149 52.9465 439.33 53.0666 439.558C53.1897 439.783 53.2836 440.058 53.3483 440.385C53.4129 440.711 53.4453 441.094 53.4453 441.535ZM52.5863 442.698V441.391C52.5863 441.09 52.5678 440.825 52.5308 440.597C52.497 440.366 52.4462 440.169 52.3784 440.006C52.3107 439.843 52.2245 439.71 52.1198 439.609C52.0182 439.507 51.8997 439.433 51.7642 439.387C51.6318 439.338 51.4825 439.313 51.3163 439.313C51.1131 439.313 50.9329 439.352 50.7759 439.429C50.6189 439.503 50.4865 439.621 50.3788 439.784C50.2741 439.947 50.194 440.161 50.1386 440.426C50.0832 440.691 50.0555 441.013 50.0555 441.391V442.698C50.0555 443 50.0724 443.266 50.1063 443.497C50.1432 443.728 50.1971 443.928 50.2679 444.098C50.3387 444.264 50.4249 444.401 50.5265 444.509C50.6281 444.616 50.7451 444.697 50.8775 444.749C51.013 444.798 51.1623 444.823 51.3255 444.823C51.5349 444.823 51.718 444.783 51.8751 444.703C52.0321 444.623 52.1629 444.498 52.2676 444.329C52.3754 444.156 52.4554 443.936 52.5078 443.668C52.5601 443.397 52.5863 443.074 52.5863 442.698ZM58.7655 441.535V442.56C58.7655 443.111 58.7162 443.576 58.6177 443.955C58.5192 444.333 58.3775 444.638 58.1928 444.869C58.0081 445.1 57.7849 445.268 57.5232 445.372C57.2645 445.474 56.972 445.525 56.6457 445.525C56.3871 445.525 56.1485 445.492 55.9299 445.428C55.7113 445.363 55.5142 445.26 55.3387 445.118C55.1663 444.974 55.0185 444.786 54.8954 444.555C54.7722 444.324 54.6783 444.044 54.6137 443.714C54.549 443.385 54.5167 443 54.5167 442.56V441.535C54.5167 440.983 54.5659 440.522 54.6645 440.149C54.7661 439.777 54.9092 439.478 55.094 439.253C55.2787 439.025 55.5004 438.862 55.759 438.764C56.0207 438.665 56.3132 438.616 56.6365 438.616C56.8982 438.616 57.1383 438.648 57.3569 438.713C57.5786 438.774 57.7756 438.874 57.948 439.013C58.1204 439.149 58.2667 439.33 58.3868 439.558C58.5099 439.783 58.6038 440.058 58.6685 440.385C58.7331 440.711 58.7655 441.094 58.7655 441.535ZM57.9065 442.698V441.391C57.9065 441.09 57.888 440.825 57.851 440.597C57.8172 440.366 57.7664 440.169 57.6986 440.006C57.6309 439.843 57.5447 439.71 57.44 439.609C57.3384 439.507 57.2199 439.433 57.0844 439.387C56.952 439.338 56.8027 439.313 56.6365 439.313C56.4333 439.313 56.2531 439.352 56.0961 439.429C55.9391 439.503 55.8067 439.621 55.699 439.784C55.5943 439.947 55.5142 440.161 55.4588 440.426C55.4034 440.691 55.3757 441.013 55.3757 441.391V442.698C55.3757 443 55.3926 443.266 55.4265 443.497C55.4634 443.728 55.5173 443.928 55.5881 444.098C55.6589 444.264 55.7451 444.401 55.8467 444.509C55.9483 444.616 56.0653 444.697 56.1977 444.749C56.3332 444.798 56.4825 444.823 56.6457 444.823C56.855 444.823 57.0382 444.783 57.1953 444.703C57.3523 444.623 57.4831 444.498 57.5878 444.329C57.6956 444.156 57.7756 443.936 57.828 443.668C57.8803 443.397 57.9065 443.074 57.9065 442.698ZM59.92 444.98C59.92 444.835 59.9647 444.713 60.0539 444.615C60.1463 444.513 60.2787 444.463 60.4511 444.463C60.6235 444.463 60.7544 444.513 60.8437 444.615C60.936 444.713 60.9822 444.835 60.9822 444.98C60.9822 445.121 60.936 445.241 60.8437 445.34C60.7544 445.439 60.6235 445.488 60.4511 445.488C60.2787 445.488 60.1463 445.439 60.0539 445.34C59.9647 445.241 59.92 445.121 59.92 444.98ZM59.9246 440.902C59.9246 440.757 59.9693 440.636 60.0586 440.537C60.1509 440.435 60.2833 440.385 60.4557 440.385C60.6281 440.385 60.759 440.435 60.8483 440.537C60.9406 440.636 60.9868 440.757 60.9868 440.902C60.9868 441.044 60.9406 441.164 60.8483 441.262C60.759 441.361 60.6281 441.41 60.4557 441.41C60.2833 441.41 60.1509 441.361 60.0586 441.262C59.9693 441.164 59.9246 441.044 59.9246 440.902ZM66.3763 441.535V442.56C66.3763 443.111 66.327 443.576 66.2285 443.955C66.13 444.333 65.9884 444.638 65.8036 444.869C65.6189 445.1 65.3957 445.268 65.134 445.372C64.8754 445.474 64.5829 445.525 64.2565 445.525C63.9979 445.525 63.7593 445.492 63.5407 445.428C63.3221 445.363 63.1251 445.26 62.9496 445.118C62.7772 444.974 62.6294 444.786 62.5062 444.555C62.3831 444.324 62.2892 444.044 62.2245 443.714C62.1599 443.385 62.1275 443 62.1275 442.56V441.535C62.1275 440.983 62.1768 440.522 62.2753 440.149C62.3769 439.777 62.5201 439.478 62.7048 439.253C62.8895 439.025 63.1112 438.862 63.3698 438.764C63.6315 438.665 63.924 438.616 64.2473 438.616C64.509 438.616 64.7491 438.648 64.9677 438.713C65.1894 438.774 65.3865 438.874 65.5589 439.013C65.7313 439.149 65.8775 439.33 65.9976 439.558C66.1208 439.783 66.2147 440.058 66.2793 440.385C66.344 440.711 66.3763 441.094 66.3763 441.535ZM65.5173 442.698V441.391C65.5173 441.09 65.4988 440.825 65.4619 440.597C65.428 440.366 65.3772 440.169 65.3095 440.006C65.2417 439.843 65.1555 439.71 65.0509 439.609C64.9493 439.507 64.8307 439.433 64.6953 439.387C64.5629 439.338 64.4135 439.313 64.2473 439.313C64.0441 439.313 63.864 439.352 63.707 439.429C63.5499 439.503 63.4175 439.621 63.3098 439.784C63.2051 439.947 63.1251 440.161 63.0696 440.426C63.0142 440.691 62.9865 441.013 62.9865 441.391V442.698C62.9865 443 63.0034 443.266 63.0373 443.497C63.0743 443.728 63.1281 443.928 63.199 444.098C63.2698 444.264 63.356 444.401 63.4576 444.509C63.5592 444.616 63.6762 444.697 63.8086 444.749C63.944 444.798 64.0933 444.823 64.2565 444.823C64.4659 444.823 64.6491 444.783 64.8061 444.703C64.9631 444.623 65.094 444.498 65.1986 444.329C65.3064 444.156 65.3865 443.936 65.4388 443.668C65.4911 443.397 65.5173 443.074 65.5173 442.698ZM71.6965 441.535V442.56C71.6965 443.111 71.6472 443.576 71.5487 443.955C71.4502 444.333 71.3086 444.638 71.1238 444.869C70.9391 445.1 70.7159 445.268 70.4542 445.372C70.1956 445.474 69.9031 445.525 69.5767 445.525C69.3181 445.525 69.0795 445.492 68.8609 445.428C68.6423 445.363 68.4453 445.26 68.2698 445.118C68.0974 444.974 67.9496 444.786 67.8264 444.555C67.7033 444.324 67.6094 444.044 67.5447 443.714C67.48 443.385 67.4477 443 67.4477 442.56V441.535C67.4477 440.983 67.497 440.522 67.5955 440.149C67.6971 439.777 67.8403 439.478 68.025 439.253C68.2097 439.025 68.4314 438.862 68.69 438.764C68.9517 438.665 69.2442 438.616 69.5675 438.616C69.8292 438.616 70.0693 438.648 70.2879 438.713C70.5096 438.774 70.7067 438.874 70.8791 439.013C71.0515 439.149 71.1977 439.33 71.3178 439.558C71.4409 439.783 71.5349 440.058 71.5995 440.385C71.6642 440.711 71.6965 441.094 71.6965 441.535ZM70.8375 442.698V441.391C70.8375 441.09 70.819 440.825 70.7821 440.597C70.7482 440.366 70.6974 440.169 70.6297 440.006C70.5619 439.843 70.4757 439.71 70.3711 439.609C70.2695 439.507 70.1509 439.433 70.0155 439.387C69.8831 439.338 69.7337 439.313 69.5675 439.313C69.3643 439.313 69.1842 439.352 69.0272 439.429C68.8701 439.503 68.7377 439.621 68.63 439.784C68.5253 439.947 68.4453 440.161 68.3898 440.426C68.3344 440.691 68.3067 441.013 68.3067 441.391V442.698C68.3067 443 68.3236 443.266 68.3575 443.497C68.3945 443.728 68.4483 443.928 68.5192 444.098C68.59 444.264 68.6762 444.401 68.7778 444.509C68.8794 444.616 68.9964 444.697 69.1288 444.749C69.2642 444.798 69.4135 444.823 69.5767 444.823C69.7861 444.823 69.9693 444.783 70.1263 444.703C70.2833 444.623 70.4142 444.498 70.5188 444.329C70.6266 444.156 70.7067 443.936 70.759 443.668C70.8113 443.397 70.8375 443.074 70.8375 442.698Z" fill="black"/>
<path d="M352.805 441.113V442.138C352.805 442.689 352.755 443.154 352.657 443.533C352.558 443.911 352.417 444.216 352.232 444.447C352.047 444.678 351.824 444.846 351.562 444.95C351.304 445.052 351.011 445.103 350.685 445.103C350.426 445.103 350.188 445.071 349.969 445.006C349.751 444.941 349.554 444.838 349.378 444.696C349.206 444.552 349.058 444.364 348.935 444.133C348.812 443.902 348.718 443.622 348.653 443.293C348.588 442.963 348.556 442.578 348.556 442.138V441.113C348.556 440.562 348.605 440.1 348.704 439.727C348.805 439.355 348.949 439.056 349.133 438.831C349.318 438.603 349.54 438.44 349.798 438.342C350.06 438.243 350.352 438.194 350.676 438.194C350.937 438.194 351.178 438.226 351.396 438.291C351.618 438.353 351.815 438.453 351.987 438.591C352.16 438.727 352.306 438.908 352.426 439.136C352.549 439.361 352.643 439.636 352.708 439.963C352.772 440.289 352.805 440.672 352.805 441.113ZM351.946 442.277V440.97C351.946 440.668 351.927 440.403 351.89 440.175C351.856 439.944 351.806 439.747 351.738 439.584C351.67 439.421 351.584 439.289 351.479 439.187C351.378 439.085 351.259 439.011 351.124 438.965C350.991 438.916 350.842 438.891 350.676 438.891C350.473 438.891 350.292 438.93 350.135 439.007C349.978 439.081 349.846 439.199 349.738 439.362C349.634 439.526 349.554 439.74 349.498 440.004C349.443 440.269 349.415 440.591 349.415 440.97V442.277C349.415 442.578 349.432 442.845 349.466 443.075C349.503 443.306 349.557 443.506 349.627 443.676C349.698 443.842 349.784 443.979 349.886 444.087C349.988 444.195 350.105 444.275 350.237 444.327C350.372 444.376 350.522 444.401 350.685 444.401C350.894 444.401 351.078 444.361 351.235 444.281C351.392 444.201 351.522 444.076 351.627 443.907C351.735 443.734 351.815 443.514 351.867 443.246C351.92 442.975 351.946 442.652 351.946 442.277ZM357.183 438.277H357.257V439.002H357.183C356.73 439.002 356.352 439.076 356.047 439.224C355.742 439.369 355.5 439.564 355.322 439.81C355.143 440.054 355.014 440.328 354.934 440.632C354.857 440.937 354.818 441.247 354.818 441.561V442.549C354.818 442.848 354.854 443.112 354.925 443.343C354.995 443.571 355.092 443.764 355.215 443.921C355.339 444.078 355.477 444.196 355.631 444.276C355.788 444.356 355.951 444.396 356.121 444.396C356.318 444.396 356.493 444.359 356.647 444.285C356.801 444.208 356.93 444.102 357.035 443.967C357.143 443.828 357.224 443.665 357.28 443.477C357.335 443.289 357.363 443.083 357.363 442.858C357.363 442.658 357.338 442.466 357.289 442.281C357.24 442.093 357.164 441.927 357.063 441.782C356.961 441.635 356.833 441.519 356.679 441.436C356.529 441.35 356.348 441.307 356.139 441.307C355.902 441.307 355.68 441.365 355.474 441.482C355.271 441.596 355.103 441.747 354.971 441.935C354.841 442.119 354.768 442.321 354.749 442.54L354.296 442.535C354.34 442.19 354.42 441.896 354.537 441.653C354.657 441.407 354.804 441.207 354.98 441.053C355.159 440.896 355.357 440.782 355.576 440.711C355.797 440.637 356.031 440.6 356.278 440.6C356.613 440.6 356.903 440.663 357.146 440.789C357.389 440.916 357.589 441.085 357.746 441.297C357.903 441.507 358.019 441.744 358.093 442.009C358.17 442.27 358.208 442.54 358.208 442.817C358.208 443.134 358.163 443.431 358.074 443.708C357.985 443.985 357.851 444.228 357.672 444.438C357.497 444.647 357.28 444.81 357.021 444.927C356.763 445.044 356.462 445.103 356.121 445.103C355.757 445.103 355.44 445.029 355.169 444.881C354.898 444.73 354.674 444.53 354.495 444.281C354.316 444.031 354.183 443.754 354.093 443.45C354.004 443.145 353.959 442.835 353.959 442.521V442.119C353.959 441.645 354.007 441.18 354.102 440.725C354.198 440.269 354.363 439.857 354.597 439.487C354.834 439.118 355.162 438.824 355.58 438.605C355.999 438.386 356.533 438.277 357.183 438.277ZM359.28 444.558C359.28 444.413 359.324 444.292 359.413 444.193C359.506 444.091 359.638 444.041 359.811 444.041C359.983 444.041 360.114 444.091 360.203 444.193C360.296 444.292 360.342 444.413 360.342 444.558C360.342 444.7 360.296 444.82 360.203 444.918C360.114 445.017 359.983 445.066 359.811 445.066C359.638 445.066 359.506 445.017 359.413 444.918C359.324 444.82 359.28 444.7 359.28 444.558ZM359.284 440.48C359.284 440.335 359.329 440.214 359.418 440.115C359.51 440.014 359.643 439.963 359.815 439.963C359.988 439.963 360.118 440.014 360.208 440.115C360.3 440.214 360.346 440.335 360.346 440.48C360.346 440.622 360.3 440.742 360.208 440.84C360.118 440.939 359.988 440.988 359.815 440.988C359.643 440.988 359.51 440.939 359.418 440.84C359.329 440.742 359.284 440.622 359.284 440.48ZM365.736 441.113V442.138C365.736 442.689 365.687 443.154 365.588 443.533C365.489 443.911 365.348 444.216 365.163 444.447C364.978 444.678 364.755 444.846 364.493 444.95C364.235 445.052 363.942 445.103 363.616 445.103C363.357 445.103 363.119 445.071 362.9 445.006C362.682 444.941 362.485 444.838 362.309 444.696C362.137 444.552 361.989 444.364 361.866 444.133C361.743 443.902 361.649 443.622 361.584 443.293C361.519 442.963 361.487 442.578 361.487 442.138V441.113C361.487 440.562 361.536 440.1 361.635 439.727C361.736 439.355 361.88 439.056 362.064 438.831C362.249 438.603 362.471 438.44 362.729 438.342C362.991 438.243 363.284 438.194 363.607 438.194C363.868 438.194 364.109 438.226 364.327 438.291C364.549 438.353 364.746 438.453 364.918 438.591C365.091 438.727 365.237 438.908 365.357 439.136C365.48 439.361 365.574 439.636 365.639 439.963C365.703 440.289 365.736 440.672 365.736 441.113ZM364.877 442.277V440.97C364.877 440.668 364.858 440.403 364.821 440.175C364.788 439.944 364.737 439.747 364.669 439.584C364.601 439.421 364.515 439.289 364.41 439.187C364.309 439.085 364.19 439.011 364.055 438.965C363.922 438.916 363.773 438.891 363.607 438.891C363.404 438.891 363.223 438.93 363.066 439.007C362.909 439.081 362.777 439.199 362.669 439.362C362.565 439.526 362.485 439.74 362.429 440.004C362.374 440.269 362.346 440.591 362.346 440.97V442.277C362.346 442.578 362.363 442.845 362.397 443.075C362.434 443.306 362.488 443.506 362.558 443.676C362.629 443.842 362.715 443.979 362.817 444.087C362.919 444.195 363.036 444.275 363.168 444.327C363.304 444.376 363.453 444.401 363.616 444.401C363.825 444.401 364.009 444.361 364.166 444.281C364.323 444.201 364.453 444.076 364.558 443.907C364.666 443.734 364.746 443.514 364.798 443.246C364.851 442.975 364.877 442.652 364.877 442.277ZM371.056 441.113V442.138C371.056 442.689 371.007 443.154 370.908 443.533C370.81 443.911 370.668 444.216 370.483 444.447C370.299 444.678 370.075 444.846 369.814 444.95C369.555 445.052 369.263 445.103 368.936 445.103C368.678 445.103 368.439 445.071 368.22 445.006C368.002 444.941 367.805 444.838 367.629 444.696C367.457 444.552 367.309 444.364 367.186 444.133C367.063 443.902 366.969 443.622 366.904 443.293C366.84 442.963 366.807 442.578 366.807 442.138V441.113C366.807 440.562 366.856 440.1 366.955 439.727C367.057 439.355 367.2 439.056 367.384 438.831C367.569 438.603 367.791 438.44 368.05 438.342C368.311 438.243 368.604 438.194 368.927 438.194C369.189 438.194 369.429 438.226 369.647 438.291C369.869 438.353 370.066 438.453 370.239 438.591C370.411 438.727 370.557 438.908 370.677 439.136C370.8 439.361 370.894 439.636 370.959 439.963C371.024 440.289 371.056 440.672 371.056 441.113ZM370.197 442.277V440.97C370.197 440.668 370.179 440.403 370.142 440.175C370.108 439.944 370.057 439.747 369.989 439.584C369.921 439.421 369.835 439.289 369.731 439.187C369.629 439.085 369.51 439.011 369.375 438.965C369.243 438.916 369.093 438.891 368.927 438.891C368.724 438.891 368.544 438.93 368.387 439.007C368.23 439.081 368.097 439.199 367.989 439.362C367.885 439.526 367.805 439.74 367.749 440.004C367.694 440.269 367.666 440.591 367.666 440.97V442.277C367.666 442.578 367.683 442.845 367.717 443.075C367.754 443.306 367.808 443.506 367.879 443.676C367.949 443.842 368.036 443.979 368.137 444.087C368.239 444.195 368.356 444.275 368.488 444.327C368.624 444.376 368.773 444.401 368.936 444.401C369.146 444.401 369.329 444.361 369.486 444.281C369.643 444.201 369.774 444.076 369.878 443.907C369.986 443.734 370.066 443.514 370.118 443.246C370.171 442.975 370.197 442.652 370.197 442.277Z" fill="black"/>
<path d="M662.476 438.249V445.01H661.622V439.316L659.899 439.944V439.173L662.342 438.249H662.476ZM669.394 444.309V445.01H664.993V444.396L667.196 441.944C667.467 441.642 667.676 441.387 667.824 441.177C667.975 440.965 668.08 440.776 668.138 440.609C668.2 440.44 668.231 440.268 668.231 440.092C668.231 439.87 668.184 439.67 668.092 439.492C668.003 439.31 667.87 439.165 667.695 439.058C667.519 438.95 667.307 438.896 667.058 438.896C666.759 438.896 666.509 438.954 666.309 439.071C666.112 439.185 665.965 439.345 665.866 439.552C665.767 439.758 665.718 439.995 665.718 440.263H664.864C664.864 439.884 664.947 439.538 665.113 439.224C665.279 438.91 665.526 438.66 665.852 438.476C666.178 438.288 666.58 438.194 667.058 438.194C667.482 438.194 667.846 438.269 668.147 438.42C668.449 438.568 668.68 438.777 668.84 439.048C669.003 439.316 669.085 439.63 669.085 439.99C669.085 440.188 669.051 440.388 668.983 440.591C668.919 440.791 668.828 440.991 668.711 441.191C668.597 441.391 668.463 441.588 668.309 441.782C668.158 441.976 667.997 442.167 667.824 442.355L666.023 444.309H669.394ZM670.364 444.558C670.364 444.413 670.409 444.292 670.498 444.193C670.59 444.091 670.723 444.041 670.895 444.041C671.068 444.041 671.199 444.091 671.288 444.193C671.38 444.292 671.426 444.413 671.426 444.558C671.426 444.7 671.38 444.82 671.288 444.918C671.199 445.017 671.068 445.066 670.895 445.066C670.723 445.066 670.59 445.017 670.498 444.918C670.409 444.82 670.364 444.7 670.364 444.558ZM670.369 440.48C670.369 440.335 670.413 440.214 670.503 440.115C670.595 440.014 670.727 439.963 670.9 439.963C671.072 439.963 671.203 440.014 671.292 440.115C671.385 440.214 671.431 440.335 671.431 440.48C671.431 440.622 671.385 440.742 671.292 440.84C671.203 440.939 671.072 440.988 670.9 440.988C670.727 440.988 670.595 440.939 670.503 440.84C670.413 440.742 670.369 440.622 670.369 440.48ZM676.82 441.113V442.138C676.82 442.689 676.771 443.154 676.673 443.533C676.574 443.911 676.432 444.216 676.248 444.447C676.063 444.678 675.84 444.846 675.578 444.95C675.32 445.052 675.027 445.103 674.701 445.103C674.442 445.103 674.203 445.071 673.985 445.006C673.766 444.941 673.569 444.838 673.394 444.696C673.221 444.552 673.074 444.364 672.95 444.133C672.827 443.902 672.733 443.622 672.669 443.293C672.604 442.963 672.572 442.578 672.572 442.138V441.113C672.572 440.562 672.621 440.1 672.719 439.727C672.821 439.355 672.964 439.056 673.149 438.831C673.334 438.603 673.555 438.44 673.814 438.342C674.076 438.243 674.368 438.194 674.691 438.194C674.953 438.194 675.193 438.226 675.412 438.291C675.634 438.353 675.831 438.453 676.003 438.591C676.175 438.727 676.322 438.908 676.442 439.136C676.565 439.361 676.659 439.636 676.723 439.963C676.788 440.289 676.82 440.672 676.82 441.113ZM675.961 442.277V440.97C675.961 440.668 675.943 440.403 675.906 440.175C675.872 439.944 675.821 439.747 675.754 439.584C675.686 439.421 675.6 439.289 675.495 439.187C675.393 439.085 675.275 439.011 675.139 438.965C675.007 438.916 674.858 438.891 674.691 438.891C674.488 438.891 674.308 438.93 674.151 439.007C673.994 439.081 673.862 439.199 673.754 439.362C673.649 439.526 673.569 439.74 673.514 440.004C673.458 440.269 673.431 440.591 673.431 440.97V442.277C673.431 442.578 673.448 442.845 673.481 443.075C673.518 443.306 673.572 443.506 673.643 443.676C673.714 443.842 673.8 443.979 673.902 444.087C674.003 444.195 674.12 444.275 674.253 444.327C674.388 444.376 674.537 444.401 674.701 444.401C674.91 444.401 675.093 444.361 675.25 444.281C675.407 444.201 675.538 444.076 675.643 443.907C675.751 443.734 675.831 443.514 675.883 443.246C675.935 442.975 675.961 442.652 675.961 442.277ZM682.141 441.113V442.138C682.141 442.689 682.091 443.154 681.993 443.533C681.894 443.911 681.753 444.216 681.568 444.447C681.383 444.678 681.16 444.846 680.898 444.95C680.64 445.052 680.347 445.103 680.021 445.103C679.762 445.103 679.524 445.071 679.305 445.006C679.086 444.941 678.889 444.838 678.714 444.696C678.541 444.552 678.394 444.364 678.271 444.133C678.147 443.902 678.053 443.622 677.989 443.293C677.924 442.963 677.892 442.578 677.892 442.138V441.113C677.892 440.562 677.941 440.1 678.04 439.727C678.141 439.355 678.284 439.056 678.469 438.831C678.654 438.603 678.876 438.44 679.134 438.342C679.396 438.243 679.688 438.194 680.012 438.194C680.273 438.194 680.513 438.226 680.732 438.291C680.954 438.353 681.151 438.453 681.323 438.591C681.496 438.727 681.642 438.908 681.762 439.136C681.885 439.361 681.979 439.636 682.044 439.963C682.108 440.289 682.141 440.672 682.141 441.113ZM681.282 442.277V440.97C681.282 440.668 681.263 440.403 681.226 440.175C681.192 439.944 681.142 439.747 681.074 439.584C681.006 439.421 680.92 439.289 680.815 439.187C680.714 439.085 680.595 439.011 680.46 438.965C680.327 438.916 680.178 438.891 680.012 438.891C679.808 438.891 679.628 438.93 679.471 439.007C679.314 439.081 679.182 439.199 679.074 439.362C678.969 439.526 678.889 439.74 678.834 440.004C678.779 440.269 678.751 440.591 678.751 440.97V442.277C678.751 442.578 678.768 442.845 678.802 443.075C678.839 443.306 678.892 443.506 678.963 443.676C679.034 443.842 679.12 443.979 679.222 444.087C679.324 444.195 679.441 444.275 679.573 444.327C679.708 444.376 679.858 444.401 680.021 444.401C680.23 444.401 680.413 444.361 680.57 444.281C680.727 444.201 680.858 444.076 680.963 443.907C681.071 443.734 681.151 443.514 681.203 443.246C681.255 442.975 681.282 442.652 681.282 442.277ZM683.346 444.558C683.346 444.413 683.391 444.292 683.48 444.193C683.572 444.091 683.705 444.041 683.877 444.041C684.049 444.041 684.18 444.091 684.27 444.193C684.362 444.292 684.408 444.413 684.408 444.558C684.408 444.7 684.362 444.82 684.27 444.918C684.18 445.017 684.049 445.066 683.877 445.066C683.705 445.066 683.572 445.017 683.48 444.918C683.391 444.82 683.346 444.7 683.346 444.558Z" fill="black"/>
<path d="M963.107 438.671V445.432H962.253V439.738L960.53 440.366V439.595L962.973 438.671H963.107ZM969.859 443.613C969.859 444.022 969.764 444.37 969.573 444.657C969.385 444.94 969.13 445.155 968.806 445.303C968.486 445.451 968.124 445.525 967.721 445.525C967.318 445.525 966.954 445.451 966.631 445.303C966.308 445.155 966.052 444.94 965.864 444.657C965.677 444.37 965.583 444.022 965.583 443.613C965.583 443.345 965.634 443.1 965.735 442.878C965.84 442.654 965.986 442.458 966.174 442.292C966.365 442.126 966.59 441.998 966.848 441.909C967.11 441.816 967.398 441.77 967.712 441.77C968.124 441.77 968.492 441.85 968.816 442.01C969.139 442.167 969.393 442.384 969.578 442.661C969.765 442.939 969.859 443.256 969.859 443.613ZM969 443.594C969 443.345 968.946 443.125 968.839 442.934C968.731 442.74 968.58 442.589 968.386 442.481C968.192 442.374 967.967 442.32 967.712 442.32C967.45 442.32 967.224 442.374 967.033 442.481C966.845 442.589 966.699 442.74 966.594 442.934C966.489 443.125 966.437 443.345 966.437 443.594C966.437 443.853 966.488 444.075 966.59 444.259C966.694 444.441 966.842 444.581 967.033 444.68C967.227 444.775 967.456 444.823 967.721 444.823C967.986 444.823 968.214 444.775 968.405 444.68C968.595 444.581 968.742 444.441 968.843 444.259C968.948 444.075 969 443.853 969 443.594ZM969.702 440.459C969.702 440.785 969.616 441.079 969.444 441.341C969.271 441.602 969.036 441.809 968.737 441.959C968.438 442.11 968.1 442.186 967.721 442.186C967.336 442.186 966.993 442.11 966.691 441.959C966.393 441.809 966.159 441.602 965.989 441.341C965.82 441.079 965.735 440.785 965.735 440.459C965.735 440.068 965.82 439.735 965.989 439.461C966.162 439.187 966.397 438.978 966.696 438.833C966.994 438.688 967.335 438.616 967.716 438.616C968.101 438.616 968.443 438.688 968.742 438.833C969.04 438.978 969.274 439.187 969.444 439.461C969.616 439.735 969.702 440.068 969.702 440.459ZM968.848 440.472C968.848 440.248 968.8 440.049 968.705 439.877C968.609 439.704 968.477 439.569 968.308 439.47C968.138 439.369 967.941 439.318 967.716 439.318C967.492 439.318 967.295 439.366 967.125 439.461C966.959 439.553 966.828 439.686 966.733 439.858C966.64 440.031 966.594 440.235 966.594 440.472C966.594 440.703 966.64 440.905 966.733 441.077C966.828 441.25 966.961 441.384 967.13 441.479C967.299 441.575 967.496 441.622 967.721 441.622C967.946 441.622 968.141 441.575 968.308 441.479C968.477 441.384 968.609 441.25 968.705 441.077C968.8 440.905 968.848 440.703 968.848 440.472ZM970.995 444.98C970.995 444.835 971.04 444.713 971.129 444.615C971.222 444.513 971.354 444.463 971.526 444.463C971.699 444.463 971.83 444.513 971.919 444.615C972.011 444.713 972.058 444.835 972.058 444.98C972.058 445.121 972.011 445.241 971.919 445.34C971.83 445.439 971.699 445.488 971.526 445.488C971.354 445.488 971.222 445.439 971.129 445.34C971.04 445.241 970.995 445.121 970.995 444.98ZM971 440.902C971 440.757 971.045 440.636 971.134 440.537C971.226 440.435 971.359 440.385 971.531 440.385C971.703 440.385 971.834 440.435 971.924 440.537C972.016 440.636 972.062 440.757 972.062 440.902C972.062 441.044 972.016 441.164 971.924 441.262C971.834 441.361 971.703 441.41 971.531 441.41C971.359 441.41 971.226 441.361 971.134 441.262C971.045 441.164 971 441.044 971 440.902ZM977.452 441.535V442.56C977.452 443.111 977.402 443.576 977.304 443.955C977.205 444.333 977.064 444.638 976.879 444.869C976.694 445.1 976.471 445.268 976.209 445.372C975.951 445.474 975.658 445.525 975.332 445.525C975.073 445.525 974.835 445.492 974.616 445.428C974.397 445.363 974.2 445.26 974.025 445.118C973.852 444.974 973.705 444.786 973.582 444.555C973.458 444.324 973.365 444.044 973.3 443.714C973.235 443.385 973.203 443 973.203 442.56V441.535C973.203 440.983 973.252 440.522 973.351 440.149C973.452 439.777 973.595 439.478 973.78 439.253C973.965 439.025 974.187 438.862 974.445 438.764C974.707 438.665 974.999 438.616 975.323 438.616C975.584 438.616 975.824 438.648 976.043 438.713C976.265 438.774 976.462 438.874 976.634 439.013C976.807 439.149 976.953 439.33 977.073 439.558C977.196 439.783 977.29 440.058 977.355 440.385C977.419 440.711 977.452 441.094 977.452 441.535ZM976.593 442.698V441.391C976.593 441.09 976.574 440.825 976.537 440.597C976.503 440.366 976.453 440.169 976.385 440.006C976.317 439.843 976.231 439.71 976.126 439.609C976.025 439.507 975.906 439.433 975.771 439.387C975.638 439.338 975.489 439.313 975.323 439.313C975.119 439.313 974.939 439.352 974.782 439.429C974.625 439.503 974.493 439.621 974.385 439.784C974.28 439.947 974.2 440.161 974.145 440.426C974.09 440.691 974.062 441.013 974.062 441.391V442.698C974.062 443 974.079 443.266 974.113 443.497C974.15 443.728 974.203 443.928 974.274 444.098C974.345 444.264 974.431 444.401 974.533 444.509C974.635 444.616 974.752 444.697 974.884 444.749C975.019 444.798 975.169 444.823 975.332 444.823C975.541 444.823 975.724 444.783 975.881 444.703C976.038 444.623 976.169 444.498 976.274 444.329C976.382 444.156 976.462 443.936 976.514 443.668C976.566 443.397 976.593 443.074 976.593 442.698ZM982.772 441.535V442.56C982.772 443.111 982.723 443.576 982.624 443.955C982.526 444.333 982.384 444.638 982.199 444.869C982.014 445.1 981.791 445.268 981.53 445.372C981.271 445.474 980.978 445.525 980.652 445.525C980.393 445.525 980.155 445.492 979.936 445.428C979.718 445.363 979.521 445.26 979.345 445.118C979.173 444.974 979.025 444.786 978.902 444.555C978.779 444.324 978.685 444.044 978.62 443.714C978.555 443.385 978.523 443 978.523 442.56V441.535C978.523 440.983 978.572 440.522 978.671 440.149C978.772 439.777 978.916 439.478 979.1 439.253C979.285 439.025 979.507 438.862 979.765 438.764C980.027 438.665 980.32 438.616 980.643 438.616C980.905 438.616 981.145 438.648 981.363 438.713C981.585 438.774 981.782 438.874 981.954 439.013C982.127 439.149 982.273 439.33 982.393 439.558C982.516 439.783 982.61 440.058 982.675 440.385C982.739 440.711 982.772 441.094 982.772 441.535ZM981.913 442.698V441.391C981.913 441.09 981.894 440.825 981.857 440.597C981.824 440.366 981.773 440.169 981.705 440.006C981.637 439.843 981.551 439.71 981.446 439.609C981.345 439.507 981.226 439.433 981.091 439.387C980.958 439.338 980.809 439.313 980.643 439.313C980.44 439.313 980.26 439.352 980.102 439.429C979.945 439.503 979.813 439.621 979.705 439.784C979.601 439.947 979.521 440.161 979.465 440.426C979.41 440.691 979.382 441.013 979.382 441.391V442.698C979.382 443 979.399 443.266 979.433 443.497C979.47 443.728 979.524 443.928 979.594 444.098C979.665 444.264 979.752 444.401 979.853 444.509C979.955 444.616 980.072 444.697 980.204 444.749C980.34 444.798 980.489 444.823 980.652 444.823C980.861 444.823 981.045 444.783 981.202 444.703C981.359 444.623 981.489 444.498 981.594 444.329C981.702 444.156 981.782 443.936 981.834 443.668C981.887 443.397 981.913 443.074 981.913 442.698Z" fill="black"/>
<path d="M22.4597 413.102V414.127C22.4597 414.679 22.4104 415.143 22.3119 415.522C22.2134 415.901 22.0717 416.206 21.887 416.437C21.7023 416.667 21.4791 416.835 21.2174 416.94C20.9587 417.042 20.6663 417.092 20.3399 417.092C20.0813 417.092 19.8427 417.06 19.6241 416.995C19.4055 416.931 19.2084 416.828 19.0329 416.686C18.8605 416.541 18.7127 416.353 18.5896 416.123C18.4664 415.892 18.3725 415.611 18.3079 415.282C18.2432 414.953 18.2109 414.568 18.2109 414.127V413.102C18.2109 412.551 18.2602 412.089 18.3587 411.717C18.4603 411.344 18.6034 411.046 18.7882 410.821C18.9729 410.593 19.1946 410.43 19.4532 410.331C19.7149 410.233 20.0074 410.183 20.3307 410.183C20.5924 410.183 20.8325 410.216 21.0511 410.28C21.2728 410.342 21.4698 410.442 21.6422 410.581C21.8147 410.716 21.9609 410.898 22.081 411.126C22.2041 411.35 22.298 411.626 22.3627 411.952C22.4273 412.279 22.4597 412.662 22.4597 413.102ZM21.6007 414.266V412.959C21.6007 412.657 21.5822 412.393 21.5453 412.165C21.5114 411.934 21.4606 411.737 21.3929 411.574C21.3251 411.41 21.2389 411.278 21.1342 411.176C21.0326 411.075 20.9141 411.001 20.7786 410.955C20.6462 410.905 20.4969 410.881 20.3307 410.881C20.1275 410.881 19.9474 410.919 19.7903 410.996C19.6333 411.07 19.5009 411.189 19.3932 411.352C19.2885 411.515 19.2084 411.729 19.153 411.994C19.0976 412.259 19.0699 412.58 19.0699 412.959V414.266C19.0699 414.568 19.0868 414.834 19.1207 415.065C19.1576 415.296 19.2115 415.496 19.2823 415.665C19.3531 415.832 19.4393 415.969 19.5409 416.076C19.6425 416.184 19.7595 416.264 19.8919 416.317C20.0274 416.366 20.1767 416.39 20.3399 416.39C20.5493 416.39 20.7325 416.35 20.8895 416.27C21.0465 416.19 21.1773 416.066 21.282 415.896C21.3898 415.724 21.4698 415.504 21.5222 415.236C21.5745 414.965 21.6007 414.642 21.6007 414.266Z" fill="black"/>
<path d="M18.7189 336V336.702H14.484V336H18.7189ZM22.9861 336V336.702H18.7512V336H22.9861Z" fill="black"/>
<path d="M18.7189 254V254.702H14.484V254H18.7189ZM22.9861 254V254.702H18.7512V254H22.9861Z" fill="black"/>
<path d="M18.7189 172V172.702H14.484V172H18.7189ZM22.9861 172V172.702H18.7512V172H22.9861Z" fill="black"/>
<path d="M18.7189 90V90.702H14.484V90H18.7189ZM22.9861 90V90.702H18.7512V90H22.9861Z" fill="black"/>
<path d="M18.7189 9V9.70197H14.484V9H18.7189ZM22.9861 9V9.70197H18.7512V9H22.9861Z" fill="black"/>
<ellipse cx="104.5" cy="424.466" rx="3.5" ry="3.64189" fill="black"/>
<ellipse cx="156.5" cy="424.466" rx="3.5" ry="3.64189" fill="black"/>
<ellipse cx="207.5" cy="424.466" rx="3.5" ry="3.64189" fill="black"/>
<ellipse cx="258.5" cy="424.466" rx="3.5" ry="3.64189" fill="black"/>
<ellipse cx="308.5" cy="424.466" rx="3.5" ry="3.64189" fill="black"/>
<ellipse cx="359.5" cy="424.466" rx="3.5" ry="3.64189" fill="black"/>
<ellipse cx="52.5" cy="423.426" rx="3.5" ry="3.64189" fill="black"/>
<ellipse cx="462.5" cy="424.466" rx="3.5" ry="3.64189" fill="black"/>
<ellipse cx="514.5" cy="424.466" rx="3.5" ry="3.64189" fill="black"/>
<ellipse cx="565.5" cy="424.466" rx="3.5" ry="3.64189" fill="black"/>
<ellipse cx="616.5" cy="424.466" rx="3.5" ry="3.64189" fill="black"/>
<ellipse cx="666.5" cy="424.466" rx="3.5" ry="3.64189" fill="black"/>
<ellipse cx="717.5" cy="424.466" rx="3.5" ry="3.64189" fill="black"/>
<ellipse cx="411.5" cy="424.466" rx="3.5" ry="3.64189" fill="black"/>
<ellipse cx="820.5" cy="425.507" rx="3.5" ry="3.64189" fill="black"/>
<ellipse cx="872.5" cy="425.507" rx="3.5" ry="3.64189" fill="black"/>
<ellipse cx="923.5" cy="425.507" rx="3.5" ry="3.64189" fill="black"/>
<ellipse cx="971.5" cy="424.466" rx="3.5" ry="3.64189" fill="black"/>
<ellipse cx="1022.5" cy="423.426" rx="3.5" ry="3.64189" fill="black"/>
<ellipse cx="1075.5" cy="425.507" rx="3.5" ry="3.64189" fill="black"/>
<ellipse cx="768.5" cy="424.466" rx="3.5" ry="3.64189" fill="black"/>
</g>
<defs>
<clipPath id="clip0_125_57">
<rect width="1079" height="465.179" fill="white"/>
</clipPath>
</defs>
</svg>
